<?xml version="1.0" encoding="UTF-8" standalone="no"?>
<!-- Created with Inkscape (http://www.inkscape.org/) -->

<svg
   width="275mm"
   height="117mm"
   viewBox="0 0 275 117"
   version="1.1"
   id="svg1"
   inkscape:version="1.3.2 (091e20e, 2023-11-25, custom)"
   sodipodi:docname="fsc.svg"
   xmlns:inkscape="http://www.inkscape.org/namespaces/inkscape"
   xmlns:sodipodi="http://sodipodi.sourceforge.net/DTD/sodipodi-0.dtd"
   xmlns="http://www.w3.org/2000/svg"
   xmlns:svg="http://www.w3.org/2000/svg">
  <sodipodi:namedview
     id="namedview1"
     pagecolor="#ffffff"
     bordercolor="#000000"
     borderopacity="0.25"
     inkscape:showpageshadow="2"
     inkscape:pageopacity="0.0"
     inkscape:pagecheckerboard="0"
     inkscape:deskcolor="#d1d1d1"
     inkscape:document-units="mm"
     inkscape:zoom="0.53183923"
     inkscape:cx="396.73643"
     inkscape:cy="561.25984"
     inkscape:window-width="1920"
     inkscape:window-height="991"
     inkscape:window-x="-9"
     inkscape:window-y="-9"
     inkscape:window-maximized="1"
     inkscape:current-layer="layer1" />
  <defs
     id="defs1">
    <clipPath
       id="clip0">
      <rect
         x="152"
         y="216"
         width="1019"
         height="420"
         id="rect1" />
    </clipPath>
    <clipPath
       id="clip0-6">
      <rect
         x="152"
         y="216"
         width="1019"
         height="420"
         id="rect1-8" />
    </clipPath>
    <clipPath
       id="clip0-8">
      <rect
         x="152"
         y="216"
         width="1019"
         height="420"
         id="rect1-2" />
    </clipPath>
    <clipPath
       id="clip0-85">
      <rect
         x="152"
         y="216"
         width="1019"
         height="420"
         id="rect1-4" />
    </clipPath>
  </defs>
  <g
     inkscape:label="Laag 1"
     inkscape:groupmode="layer"
     id="layer1">
    <g
       clip-path="url(#clip0-85)"
       transform="matrix(0.26458333,0,0,0.26458333,-36.634609,-55.259861)"
       id="g31">
      <rect
         x="153.5"
         y="219.5"
         width="421"
         height="324"
         stroke="#223f59"
         stroke-width="2.66667"
         stroke-linejoin="round"
         stroke-miterlimit="10"
         fill="#ffffff"
         id="rect2" />
      <text
         font-family="Verdana, Verdana_MSFontService, sans-serif"
         font-weight="400"
         font-size="24px"
         transform="translate(312.538,248)"
         id="text2">Afnemer</text>
      <rect
         x="749.5"
         y="219.5"
         width="420"
         height="324"
         stroke="#223f59"
         stroke-width="2.66667"
         stroke-linejoin="round"
         stroke-miterlimit="10"
         fill="#ffffff"
         id="rect3" />
      <text
         font-family="Verdana, Verdana_MSFontService, sans-serif"
         font-weight="400"
         font-size="24px"
         transform="translate(898.503,248)"
         id="text3">Aanbieder</text>
      <path
         d="m 393.5,467.833 c 0,-4.602 3.731,-8.333 8.333,-8.333 h 118.334 c 4.602,0 8.333,3.731 8.333,8.333 v 33.334 c 0,4.602 -3.731,8.333 -8.333,8.333 H 401.833 c -4.602,0 -8.333,-3.731 -8.333,-8.333 z"
         fill="#ffffff"
         fill-rule="evenodd"
         id="path3" />
      <path
         d="m 393,467.833 c 0,-0.033 0.003,-0.066 0.01,-0.098 l 0.655,-3.244 c 0.013,-0.065 0.039,-0.126 0.075,-0.181 l 1.786,-2.649 c 0.036,-0.053 0.082,-0.099 0.135,-0.135 l 2.649,-1.786 c 0.055,-0.036 0.116,-0.062 0.181,-0.075 l 3.244,-0.655 c 0.032,-0.007 0.065,-0.01 0.098,-0.01 h 118.334 c 0.033,0 0.066,0.003 0.099,0.01 l 3.243,0.655 c 0.065,0.013 0.126,0.039 0.181,0.075 l 2.649,1.786 c 0.053,0.036 0.099,0.082 0.135,0.135 l 1.786,2.649 c 0.037,0.055 0.062,0.116 0.075,0.181 l 0.655,3.244 c 0.007,0.032 0.01,0.065 0.01,0.098 v 33.334 c 0,0.033 -0.003,0.066 -0.01,0.099 l -0.655,3.243 c -0.013,0.065 -0.038,0.126 -0.075,0.181 l -1.786,2.649 c -0.036,0.053 -0.082,0.099 -0.135,0.135 l -2.649,1.786 c -0.055,0.037 -0.116,0.062 -0.181,0.075 l -3.243,0.655 c -0.033,0.007 -0.066,0.01 -0.099,0.01 H 401.833 c -0.033,0 -0.066,-0.003 -0.098,-0.01 l -3.244,-0.655 c -0.065,-0.013 -0.126,-0.038 -0.181,-0.075 l -2.649,-1.786 c -0.053,-0.036 -0.099,-0.082 -0.135,-0.135 l -1.786,-2.649 c -0.036,-0.055 -0.062,-0.116 -0.075,-0.181 l -0.655,-3.243 C 393.003,501.233 393,501.2 393,501.167 Z m 1,33.334 -0.01,-0.099 0.655,3.243 -0.075,-0.18 1.785,2.649 -0.135,-0.135 2.649,1.786 -0.18,-0.076 3.243,0.655 -0.099,-0.01 h 118.334 l -0.099,0.01 3.243,-0.655 -0.18,0.076 2.649,-1.786 -0.135,0.135 1.786,-2.649 -0.076,0.18 0.655,-3.243 -0.01,0.099 v -33.334 l 0.01,0.099 -0.655,-3.243 0.076,0.18 -1.786,-2.649 0.135,0.135 -2.649,-1.785 0.18,0.075 -3.243,-0.655 0.099,0.01 H 401.833 l 0.099,-0.01 -3.243,0.655 0.18,-0.075 -2.649,1.785 0.135,-0.135 -1.785,2.649 0.075,-0.18 -0.655,3.243 0.01,-0.099 z"
         id="path4" />
      <text
         font-family="Verdana, Verdana_MSFontService, sans-serif"
         font-weight="400"
         font-size="21px"
         transform="translate(414.294,491)"
         id="text4">Manager</text>
      <path
         d="m 799.5,467.833 c 0,-4.602 3.731,-8.333 8.333,-8.333 h 118.334 c 4.602,0 8.333,3.731 8.333,8.333 v 33.334 c 0,4.602 -3.731,8.333 -8.333,8.333 H 807.833 c -4.602,0 -8.333,-3.731 -8.333,-8.333 z"
         fill="#ffffff"
         fill-rule="evenodd"
         id="path5" />
      <path
         d="m 799,467.833 c 0,-0.033 0.003,-0.066 0.01,-0.098 l 0.655,-3.244 c 0.013,-0.065 0.039,-0.126 0.075,-0.181 l 1.786,-2.649 c 0.036,-0.053 0.082,-0.099 0.135,-0.135 l 2.649,-1.786 c 0.055,-0.036 0.116,-0.062 0.181,-0.075 l 3.243,-0.655 c 0.033,-0.007 0.066,-0.01 0.099,-0.01 h 118.334 c 0.033,0 0.066,0.003 0.099,0.01 l 3.243,0.655 c 0.065,0.013 0.126,0.039 0.181,0.075 l 2.649,1.786 c 0.053,0.036 0.099,0.082 0.135,0.135 l 1.786,2.649 c 0.037,0.055 0.062,0.116 0.075,0.181 l 0.655,3.244 c 0.007,0.032 0.01,0.065 0.01,0.098 v 33.334 c 0,0.033 -0.003,0.066 -0.01,0.099 l -0.655,3.243 c -0.013,0.065 -0.038,0.126 -0.075,0.181 l -1.786,2.649 c -0.036,0.053 -0.082,0.099 -0.135,0.135 l -2.649,1.786 c -0.055,0.037 -0.116,0.062 -0.181,0.075 l -3.243,0.655 c -0.033,0.007 -0.066,0.01 -0.099,0.01 H 807.833 c -0.033,0 -0.066,-0.003 -0.099,-0.01 l -3.243,-0.655 c -0.065,-0.013 -0.126,-0.038 -0.181,-0.075 l -2.649,-1.786 c -0.053,-0.036 -0.099,-0.082 -0.135,-0.135 l -1.786,-2.649 c -0.036,-0.055 -0.062,-0.116 -0.075,-0.181 l -0.655,-3.243 C 799.003,501.233 799,501.2 799,501.167 Z m 1,33.334 -0.01,-0.099 0.655,3.243 -0.075,-0.18 1.785,2.649 -0.135,-0.135 2.649,1.786 -0.18,-0.076 3.243,0.655 -0.099,-0.01 h 118.334 l -0.099,0.01 3.243,-0.655 -0.18,0.076 2.649,-1.786 -0.135,0.135 1.786,-2.649 -0.076,0.18 0.655,-3.243 -0.01,0.099 v -33.334 l 0.01,0.099 -0.655,-3.243 0.076,0.18 -1.786,-2.649 0.135,0.135 -2.649,-1.785 0.18,0.075 -3.243,-0.655 0.099,0.01 H 807.833 l 0.099,-0.01 -3.243,0.655 0.18,-0.075 -2.649,1.785 0.135,-0.135 -1.785,2.649 0.075,-0.18 -0.655,3.243 0.01,-0.099 z"
         id="path6" />
      <text
         font-family="Verdana, Verdana_MSFontService, sans-serif"
         font-weight="400"
         font-size="21px"
         transform="translate(820.347,491)"
         id="text6">Manager</text>
      <path
         d="m 393.5,373.833 c 0,-4.602 3.731,-8.333 8.333,-8.333 h 118.334 c 4.602,0 8.333,3.731 8.333,8.333 v 33.334 c 0,4.602 -3.731,8.333 -8.333,8.333 H 401.833 c -4.602,0 -8.333,-3.731 -8.333,-8.333 z"
         fill="#ffffff"
         fill-rule="evenodd"
         id="path7" />
      <path
         d="m 393,373.833 c 0,-0.033 0.003,-0.066 0.01,-0.098 l 0.655,-3.244 c 0.013,-0.065 0.039,-0.126 0.075,-0.181 l 1.786,-2.649 c 0.036,-0.053 0.082,-0.099 0.135,-0.135 l 2.649,-1.786 c 0.055,-0.036 0.116,-0.062 0.181,-0.075 l 3.244,-0.655 c 0.032,-0.007 0.065,-0.01 0.098,-0.01 h 118.334 c 0.033,0 0.066,0.003 0.099,0.01 l 3.243,0.655 c 0.065,0.013 0.126,0.039 0.181,0.075 l 2.649,1.786 c 0.053,0.036 0.099,0.082 0.135,0.135 l 1.786,2.649 c 0.037,0.055 0.062,0.116 0.075,0.181 l 0.655,3.244 c 0.007,0.032 0.01,0.065 0.01,0.098 v 33.334 c 0,0.033 -0.003,0.066 -0.01,0.099 l -0.655,3.243 c -0.013,0.065 -0.038,0.126 -0.075,0.181 l -1.786,2.649 c -0.036,0.053 -0.082,0.099 -0.135,0.135 l -2.649,1.786 c -0.055,0.037 -0.116,0.062 -0.181,0.075 l -3.243,0.655 c -0.033,0.007 -0.066,0.01 -0.099,0.01 H 401.833 c -0.033,0 -0.066,-0.003 -0.098,-0.01 l -3.244,-0.655 c -0.065,-0.013 -0.126,-0.038 -0.181,-0.075 l -2.649,-1.786 c -0.053,-0.036 -0.099,-0.082 -0.135,-0.135 l -1.786,-2.649 c -0.036,-0.055 -0.062,-0.116 -0.075,-0.181 l -0.655,-3.243 C 393.003,407.233 393,407.2 393,407.167 Z m 1,33.334 -0.01,-0.099 0.655,3.243 -0.075,-0.18 1.785,2.649 -0.135,-0.135 2.649,1.786 -0.18,-0.076 3.243,0.655 -0.099,-0.01 h 118.334 l -0.099,0.01 3.243,-0.655 -0.18,0.076 2.649,-1.786 -0.135,0.135 1.786,-2.649 -0.076,0.18 0.655,-3.243 -0.01,0.099 v -33.334 l 0.01,0.099 -0.655,-3.243 0.076,0.18 -1.786,-2.649 0.135,0.135 -2.649,-1.785 0.18,0.075 -3.243,-0.655 0.099,0.01 H 401.833 l 0.099,-0.01 -3.243,0.655 0.18,-0.075 -2.649,1.785 0.135,-0.135 -1.785,2.649 0.075,-0.18 -0.655,3.243 0.01,-0.099 z"
         id="path8" />
      <text
         font-family="Verdana, Verdana_MSFontService, sans-serif"
         font-weight="400"
         font-size="21px"
         transform="translate(419.814,397)"
         id="text8">Outway</text>
      <path
         d="m 799.5,373.833 c 0,-4.602 3.731,-8.333 8.333,-8.333 h 118.334 c 4.602,0 8.333,3.731 8.333,8.333 v 33.334 c 0,4.602 -3.731,8.333 -8.333,8.333 H 807.833 c -4.602,0 -8.333,-3.731 -8.333,-8.333 z"
         fill="#ffffff"
         fill-rule="evenodd"
         id="path9" />
      <path
         d="m 799,373.833 c 0,-0.033 0.003,-0.066 0.01,-0.098 l 0.655,-3.244 c 0.013,-0.065 0.039,-0.126 0.075,-0.181 l 1.786,-2.649 c 0.036,-0.053 0.082,-0.099 0.135,-0.135 l 2.649,-1.786 c 0.055,-0.036 0.116,-0.062 0.181,-0.075 l 3.243,-0.655 c 0.033,-0.007 0.066,-0.01 0.099,-0.01 h 118.334 c 0.033,0 0.066,0.003 0.099,0.01 l 3.243,0.655 c 0.065,0.013 0.126,0.039 0.181,0.075 l 2.649,1.786 c 0.053,0.036 0.099,0.082 0.135,0.135 l 1.786,2.649 c 0.037,0.055 0.062,0.116 0.075,0.181 l 0.655,3.244 c 0.007,0.032 0.01,0.065 0.01,0.098 v 33.334 c 0,0.033 -0.003,0.066 -0.01,0.099 l -0.655,3.243 c -0.013,0.065 -0.038,0.126 -0.075,0.181 l -1.786,2.649 c -0.036,0.053 -0.082,0.099 -0.135,0.135 l -2.649,1.786 c -0.055,0.037 -0.116,0.062 -0.181,0.075 l -3.243,0.655 c -0.033,0.007 -0.066,0.01 -0.099,0.01 H 807.833 c -0.033,0 -0.066,-0.003 -0.099,-0.01 l -3.243,-0.655 c -0.065,-0.013 -0.126,-0.038 -0.181,-0.075 l -2.649,-1.786 c -0.053,-0.036 -0.099,-0.082 -0.135,-0.135 l -1.786,-2.649 c -0.036,-0.055 -0.062,-0.116 -0.075,-0.181 l -0.655,-3.243 C 799.003,407.233 799,407.2 799,407.167 Z m 1,33.334 -0.01,-0.099 0.655,3.243 -0.075,-0.18 1.785,2.649 -0.135,-0.135 2.649,1.786 -0.18,-0.076 3.243,0.655 -0.099,-0.01 h 118.334 l -0.099,0.01 3.243,-0.655 -0.18,0.076 2.649,-1.786 -0.135,0.135 1.786,-2.649 -0.076,0.18 0.655,-3.243 -0.01,0.099 v -33.334 l 0.01,0.099 -0.655,-3.243 0.076,0.18 -1.786,-2.649 0.135,0.135 -2.649,-1.785 0.18,0.075 -3.243,-0.655 0.099,0.01 H 807.833 l 0.099,-0.01 -3.243,0.655 0.18,-0.075 -2.649,1.785 0.135,-0.135 -1.785,2.649 0.075,-0.18 -0.655,3.243 0.01,-0.099 z"
         id="path10" />
      <text
         font-family="Verdana, Verdana_MSFontService, sans-serif"
         font-weight="400"
         font-size="21px"
         transform="translate(834.004,397)"
         id="text10">Inway</text>
      <path
         d="m 997.5,373.833 c 0,-4.602 3.73,-8.333 8.33,-8.333 h 118.34 c 4.6,0 8.33,3.731 8.33,8.333 v 33.334 c 0,4.602 -3.73,8.333 -8.33,8.333 h -118.34 c -4.6,0 -8.33,-3.731 -8.33,-8.333 z"
         fill="#ffffff"
         fill-rule="evenodd"
         id="path11" />
      <path
         d="m 997,373.833 c 0,-0.033 0.003,-0.066 0.01,-0.098 l 0.655,-3.244 c 0.013,-0.065 0.039,-0.126 0.075,-0.181 l 1.786,-2.649 c 0.036,-0.053 0.082,-0.099 0.135,-0.135 l 2.649,-1.786 c 0.05,-0.036 0.12,-0.062 0.18,-0.075 l 3.24,-0.655 c 0.04,-0.007 0.07,-0.01 0.1,-0.01 h 118.34 c 0.03,0 0.06,0.003 0.1,0.01 l 3.24,0.655 c 0.06,0.013 0.13,0.039 0.18,0.075 l 2.65,1.786 c 0.05,0.036 0.1,0.082 0.13,0.135 l 1.79,2.649 c 0.04,0.055 0.06,0.116 0.08,0.181 l 0.65,3.244 c 0.01,0.032 0.01,0.065 0.01,0.098 v 33.334 c 0,0.033 0,0.066 -0.01,0.099 l -0.65,3.243 c -0.02,0.065 -0.04,0.126 -0.08,0.181 l -1.79,2.649 c -0.03,0.053 -0.08,0.099 -0.13,0.135 l -2.65,1.786 c -0.05,0.037 -0.12,0.062 -0.18,0.075 l -3.24,0.655 c -0.04,0.007 -0.07,0.01 -0.1,0.01 h -118.34 c -0.03,0 -0.06,-0.003 -0.1,-0.01 l -3.24,-0.655 c -0.06,-0.013 -0.13,-0.038 -0.18,-0.075 l -2.649,-1.786 c -0.053,-0.036 -0.099,-0.082 -0.135,-0.135 l -1.786,-2.649 c -0.036,-0.055 -0.062,-0.116 -0.075,-0.181 l -0.655,-3.243 C 997.003,407.233 997,407.2 997,407.167 Z m 1,33.334 -0.01,-0.099 0.655,3.243 -0.075,-0.18 1.79,2.649 -0.14,-0.135 2.65,1.786 -0.18,-0.076 3.24,0.655 -0.1,-0.01 h 118.34 l -0.1,0.01 3.24,-0.655 -0.18,0.076 2.65,-1.786 -0.14,0.135 1.79,-2.649 -0.07,0.18 0.65,-3.243 -0.01,0.099 v -33.334 l 0.01,0.099 -0.65,-3.243 0.07,0.18 -1.79,-2.649 0.14,0.135 -2.65,-1.785 0.18,0.075 -3.24,-0.655 0.1,0.01 h -118.34 l 0.1,-0.01 -3.24,0.655 0.18,-0.075 -2.65,1.785 0.14,-0.135 -1.79,2.649 0.075,-0.18 -0.655,3.243 0.01,-0.099 z"
         id="path12" />
      <text
         font-family="Verdana, Verdana_MSFontService, sans-serif"
         font-weight="400"
         font-size="21px"
         transform="translate(1046.11,397)"
         id="text12">API</text>
      <path
         d="m 188.5,373.834 c 0,-4.603 3.731,-8.334 8.334,-8.334 h 117.333 c 4.602,0 8.333,3.731 8.333,8.334 v 33.333 c 0,4.602 -3.731,8.333 -8.333,8.333 H 196.834 c -4.603,0 -8.334,-3.731 -8.334,-8.333 z"
         fill="#ffffff"
         fill-rule="evenodd"
         id="path13" />
      <path
         d="m 188,373.834 c 0,-0.034 0.003,-0.067 0.01,-0.099 l 0.655,-3.244 c 0.013,-0.065 0.039,-0.126 0.075,-0.181 l 1.786,-2.649 c 0.036,-0.053 0.082,-0.099 0.135,-0.135 l 2.649,-1.786 c 0.055,-0.036 0.116,-0.062 0.181,-0.075 l 3.244,-0.655 c 0.032,-0.007 0.065,-0.01 0.099,-0.01 h 117.333 c 0.033,0 0.066,0.003 0.098,0.01 l 3.244,0.655 c 0.065,0.013 0.126,0.039 0.181,0.075 l 2.649,1.786 c 0.053,0.036 0.099,0.082 0.135,0.135 l 1.786,2.649 c 0.037,0.055 0.062,0.116 0.075,0.181 l 0.655,3.244 c 0.007,0.032 0.01,0.065 0.01,0.099 v 33.333 c 0,0.033 -0.003,0.066 -0.01,0.098 l -0.655,3.244 c -0.013,0.065 -0.038,0.126 -0.075,0.181 l -1.786,2.649 c -0.036,0.053 -0.082,0.099 -0.135,0.135 l -2.649,1.786 c -0.055,0.037 -0.116,0.062 -0.181,0.075 l -3.244,0.655 c -0.032,0.007 -0.065,0.01 -0.098,0.01 H 196.834 c -0.034,0 -0.067,-0.003 -0.099,-0.01 l -3.244,-0.655 c -0.065,-0.013 -0.126,-0.038 -0.181,-0.075 l -2.649,-1.786 c -0.053,-0.036 -0.099,-0.082 -0.135,-0.135 l -1.786,-2.649 c -0.036,-0.055 -0.062,-0.116 -0.075,-0.181 l -0.655,-3.244 C 188.003,407.233 188,407.2 188,407.167 Z m 1,33.333 -0.01,-0.099 0.655,3.243 -0.075,-0.18 1.785,2.649 -0.135,-0.135 2.649,1.786 -0.18,-0.076 3.244,0.655 -0.099,-0.01 h 117.333 l -0.099,0.01 3.243,-0.655 -0.18,0.076 2.649,-1.786 -0.135,0.135 1.786,-2.649 -0.076,0.18 0.655,-3.243 -0.01,0.099 v -33.333 l 0.01,0.099 -0.655,-3.244 0.076,0.18 -1.786,-2.649 0.135,0.135 -2.649,-1.785 0.18,0.075 -3.243,-0.655 0.099,0.01 H 196.834 l 0.099,-0.01 -3.244,0.655 0.18,-0.075 -2.649,1.785 0.135,-0.135 -1.785,2.649 0.075,-0.18 -0.655,3.244 0.01,-0.099 z"
         id="path14" />
      <text
         font-family="Verdana, Verdana_MSFontService, sans-serif"
         font-weight="400"
         font-size="21px"
         transform="translate(224.532,397)"
         id="text14">Client</text>
      <path
         d="m 605.5,593.833 c 0,-4.602 3.731,-8.333 8.333,-8.333 h 118.334 c 4.602,0 8.333,3.731 8.333,8.333 v 33.334 c 0,4.602 -3.731,8.333 -8.333,8.333 H 613.833 c -4.602,0 -8.333,-3.731 -8.333,-8.333 z"
         fill="#ffffff"
         fill-rule="evenodd"
         id="path15" />
      <path
         d="m 605,593.833 c 0,-0.033 0.003,-0.066 0.01,-0.098 l 0.655,-3.244 c 0.013,-0.065 0.039,-0.126 0.075,-0.181 l 1.786,-2.649 c 0.036,-0.053 0.082,-0.099 0.135,-0.135 l 2.649,-1.786 c 0.055,-0.036 0.116,-0.062 0.181,-0.075 l 3.243,-0.655 c 0.033,-0.007 0.066,-0.01 0.099,-0.01 h 118.334 c 0.033,0 0.066,0.003 0.099,0.01 l 3.243,0.655 c 0.065,0.013 0.126,0.039 0.181,0.075 l 2.649,1.786 c 0.053,0.036 0.099,0.082 0.135,0.135 l 1.786,2.649 c 0.037,0.055 0.062,0.116 0.075,0.181 l 0.655,3.244 c 0.007,0.032 0.01,0.065 0.01,0.098 v 33.334 c 0,0.033 -0.003,0.066 -0.01,0.099 l -0.655,3.243 c -0.013,0.065 -0.038,0.126 -0.075,0.181 l -1.786,2.649 c -0.036,0.053 -0.082,0.099 -0.135,0.135 l -2.649,1.786 c -0.055,0.037 -0.116,0.062 -0.181,0.075 l -3.243,0.655 c -0.033,0.007 -0.066,0.01 -0.099,0.01 H 613.833 c -0.033,0 -0.066,-0.003 -0.099,-0.01 l -3.243,-0.655 c -0.065,-0.013 -0.126,-0.038 -0.181,-0.075 l -2.649,-1.786 c -0.053,-0.036 -0.099,-0.082 -0.135,-0.135 l -1.786,-2.649 c -0.036,-0.055 -0.062,-0.116 -0.075,-0.181 l -0.655,-3.243 C 605.003,627.233 605,627.2 605,627.167 Z m 1,33.334 -0.01,-0.099 0.655,3.243 -0.075,-0.18 1.785,2.649 -0.135,-0.135 2.649,1.786 -0.18,-0.076 3.243,0.655 -0.099,-0.01 h 118.334 l -0.099,0.01 3.243,-0.655 -0.18,0.076 2.649,-1.786 -0.135,0.135 1.786,-2.649 -0.076,0.18 0.655,-3.243 -0.01,0.099 v -33.334 l 0.01,0.099 -0.655,-3.243 0.076,0.18 -1.786,-2.649 0.135,0.135 -2.649,-1.785 0.18,0.075 -3.243,-0.655 0.099,0.01 H 613.833 l 0.099,-0.01 -3.243,0.655 0.18,-0.075 -2.649,1.785 0.135,-0.135 -1.785,2.649 0.075,-0.18 -0.655,3.243 0.01,-0.099 z"
         id="path16" />
      <text
         font-family="Verdana, Verdana_MSFontService, sans-serif"
         font-weight="400"
         font-size="21px"
         transform="translate(623.602,617)"
         id="text16">Directory</text>
      <path
         d="m 393.5,279.833 c 0,-4.602 3.731,-8.333 8.333,-8.333 h 118.334 c 4.602,0 8.333,3.731 8.333,8.333 v 33.334 c 0,4.602 -3.731,8.333 -8.333,8.333 H 401.833 c -4.602,0 -8.333,-3.731 -8.333,-8.333 z"
         fill="#ffffff"
         fill-rule="evenodd"
         id="path17" />
      <path
         d="m 393,279.833 c 0,-0.033 0.003,-0.066 0.01,-0.098 l 0.655,-3.244 c 0.013,-0.065 0.039,-0.126 0.075,-0.181 l 1.786,-2.649 c 0.036,-0.053 0.082,-0.099 0.135,-0.135 l 2.649,-1.786 c 0.055,-0.036 0.116,-0.062 0.181,-0.075 l 3.244,-0.655 c 0.032,-0.007 0.065,-0.01 0.098,-0.01 h 118.334 c 0.033,0 0.066,0.003 0.099,0.01 l 3.243,0.655 c 0.065,0.013 0.126,0.039 0.181,0.075 l 2.649,1.786 c 0.053,0.036 0.099,0.082 0.135,0.135 l 1.786,2.649 c 0.037,0.055 0.062,0.116 0.075,0.181 l 0.655,3.244 c 0.007,0.032 0.01,0.065 0.01,0.098 v 33.334 c 0,0.033 -0.003,0.066 -0.01,0.099 l -0.655,3.243 c -0.013,0.065 -0.038,0.126 -0.075,0.181 l -1.786,2.649 c -0.036,0.053 -0.082,0.099 -0.135,0.135 l -2.649,1.786 c -0.055,0.037 -0.116,0.062 -0.181,0.075 l -3.243,0.655 c -0.033,0.007 -0.066,0.01 -0.099,0.01 H 401.833 c -0.033,0 -0.066,-0.003 -0.098,-0.01 l -3.244,-0.655 c -0.065,-0.013 -0.126,-0.038 -0.181,-0.075 l -2.649,-1.786 c -0.053,-0.036 -0.099,-0.082 -0.135,-0.135 l -1.786,-2.649 c -0.036,-0.055 -0.062,-0.116 -0.075,-0.181 l -0.655,-3.243 C 393.003,313.233 393,313.2 393,313.167 Z m 1,33.334 -0.01,-0.099 0.655,3.243 -0.075,-0.18 1.785,2.649 -0.135,-0.135 2.649,1.786 -0.18,-0.076 3.243,0.655 -0.099,-0.01 h 118.334 l -0.099,0.01 3.243,-0.655 -0.18,0.076 2.649,-1.786 -0.135,0.135 1.786,-2.649 -0.076,0.18 0.655,-3.243 -0.01,0.099 v -33.334 l 0.01,0.099 -0.655,-3.243 0.076,0.18 -1.786,-2.649 0.135,0.135 -2.649,-1.785 0.18,0.075 -3.243,-0.655 0.099,0.01 H 401.833 l 0.099,-0.01 -3.243,0.655 0.18,-0.075 -2.649,1.785 0.135,-0.135 -1.785,2.649 0.075,-0.18 -0.655,3.243 0.01,-0.099 z"
         id="path18" />
      <text
         font-family="Verdana, Verdana_MSFontService, sans-serif"
         font-weight="400"
         font-size="21px"
         transform="translate(406.358,291)"
         id="text18">Transactie</text>
      <text
         font-family="Verdana, Verdana_MSFontService, sans-serif"
         font-weight="400"
         font-size="21px"
         transform="translate(444.378,314)"
         id="text19">log</text>
      <path
         d="m 799.5,279.833 c 0,-4.602 3.731,-8.333 8.333,-8.333 h 118.334 c 4.602,0 8.333,3.731 8.333,8.333 v 33.334 c 0,4.602 -3.731,8.333 -8.333,8.333 H 807.833 c -4.602,0 -8.333,-3.731 -8.333,-8.333 z"
         fill="#ffffff"
         fill-rule="evenodd"
         id="path19" />
      <path
         d="m 799,279.833 c 0,-0.033 0.003,-0.066 0.01,-0.098 l 0.655,-3.244 c 0.013,-0.065 0.039,-0.126 0.075,-0.181 l 1.786,-2.649 c 0.036,-0.053 0.082,-0.099 0.135,-0.135 l 2.649,-1.786 c 0.055,-0.036 0.116,-0.062 0.181,-0.075 l 3.243,-0.655 c 0.033,-0.007 0.066,-0.01 0.099,-0.01 h 118.334 c 0.033,0 0.066,0.003 0.099,0.01 l 3.243,0.655 c 0.065,0.013 0.126,0.039 0.181,0.075 l 2.649,1.786 c 0.053,0.036 0.099,0.082 0.135,0.135 l 1.786,2.649 c 0.037,0.055 0.062,0.116 0.075,0.181 l 0.655,3.244 c 0.007,0.032 0.01,0.065 0.01,0.098 v 33.334 c 0,0.033 -0.003,0.066 -0.01,0.099 l -0.655,3.243 c -0.013,0.065 -0.038,0.126 -0.075,0.181 l -1.786,2.649 c -0.036,0.053 -0.082,0.099 -0.135,0.135 l -2.649,1.786 c -0.055,0.037 -0.116,0.062 -0.181,0.075 l -3.243,0.655 c -0.033,0.007 -0.066,0.01 -0.099,0.01 H 807.833 c -0.033,0 -0.066,-0.003 -0.099,-0.01 l -3.243,-0.655 c -0.065,-0.013 -0.126,-0.038 -0.181,-0.075 l -2.649,-1.786 c -0.053,-0.036 -0.099,-0.082 -0.135,-0.135 l -1.786,-2.649 c -0.036,-0.055 -0.062,-0.116 -0.075,-0.181 l -0.655,-3.243 C 799.003,313.233 799,313.2 799,313.167 Z m 1,33.334 -0.01,-0.099 0.655,3.243 -0.075,-0.18 1.785,2.649 -0.135,-0.135 2.649,1.786 -0.18,-0.076 3.243,0.655 -0.099,-0.01 h 118.334 l -0.099,0.01 3.243,-0.655 -0.18,0.076 2.649,-1.786 -0.135,0.135 1.786,-2.649 -0.076,0.18 0.655,-3.243 -0.01,0.099 v -33.334 l 0.01,0.099 -0.655,-3.243 0.076,0.18 -1.786,-2.649 0.135,0.135 -2.649,-1.785 0.18,0.075 -3.243,-0.655 0.099,0.01 H 807.833 l 0.099,-0.01 -3.243,0.655 0.18,-0.075 -2.649,1.785 0.135,-0.135 -1.785,2.649 0.075,-0.18 -0.655,3.243 0.01,-0.099 z"
         id="path20" />
      <text
         font-family="Verdana, Verdana_MSFontService, sans-serif"
         font-weight="400"
         font-size="21px"
         transform="translate(812.411,291)"
         id="text20">Transactie</text>
      <text
         font-family="Verdana, Verdana_MSFontService, sans-serif"
         font-weight="400"
         font-size="21px"
         transform="translate(850.43,314)"
         id="text21">log</text>
      <path
         d="m 460.5,321.5 v 44.065"
         stroke="#000000"
         stroke-linejoin="round"
         stroke-miterlimit="10"
         fill="#eeece1"
         fill-rule="evenodd"
         id="path21" />
      <path
         d="m 867.5,321.5 v 44.312"
         stroke="#000000"
         stroke-linejoin="round"
         stroke-miterlimit="10"
         fill="#eeece1"
         fill-rule="evenodd"
         id="path22" />
      <path
         d="m 867.5,415.5 v 44.251"
         stroke="#000000"
         stroke-linejoin="round"
         stroke-miterlimit="10"
         fill="#eeece1"
         fill-rule="evenodd"
         id="path23" />
      <path
         d="m 460.5,415.5 v 44.251"
         stroke="#000000"
         stroke-linejoin="round"
         stroke-miterlimit="10"
         fill="#eeece1"
         fill-rule="evenodd"
         id="path24" />
      <path
         d="m 322.5,390.5 h 70.578"
         stroke="#000000"
         stroke-linejoin="round"
         stroke-miterlimit="10"
         fill="#eeece1"
         fill-rule="evenodd"
         id="path25" />
      <path
         d="m 934.5,390.5 h 62.992"
         stroke="#000000"
         stroke-linejoin="round"
         stroke-miterlimit="10"
         fill="#eeece1"
         fill-rule="evenodd"
         id="path26" />
      <path
         d="M 0,0 193.662,75.9785"
         stroke="#000000"
         stroke-linejoin="round"
         stroke-miterlimit="10"
         fill="#eeece1"
         fill-rule="evenodd"
         transform="matrix(1,0,0,-1,673.5,585.479)"
         id="path27" />
      <path
         d="M 672.891,585.479 460.5,509.5"
         stroke="#000000"
         stroke-linejoin="round"
         stroke-miterlimit="10"
         fill="#eeece1"
         fill-rule="evenodd"
         id="path28" />
      <path
         d="M 528.5,390.5 H 799.702"
         stroke="#000000"
         stroke-linejoin="round"
         stroke-miterlimit="10"
         fill="#eeece1"
         fill-rule="evenodd"
         id="path29" />
      <path
         d="M 528.5,484.5 H 799.702"
         stroke="#000000"
         stroke-linejoin="round"
         stroke-miterlimit="10"
         fill="#eeece1"
         fill-rule="evenodd"
         id="path30" />
      <path
         d="m 528.5,390.5 271.202,94.205"
         stroke="#000000"
         stroke-linejoin="round"
         stroke-miterlimit="10"
         fill="#eeece1"
         fill-rule="evenodd"
         id="path31" />
    </g>
  </g>
</svg>
