<?xml version="1.0" encoding="UTF-8" standalone="no"?>
<!-- Created with Inkscape (http://www.inkscape.org/) -->

<svg
   width="329mm"
   height="178mm"
   viewBox="0 0 329 178"
   version="1.1"
   id="svg1"
   inkscape:version="1.3.2 (091e20e, 2023-11-25, custom)"
   sodipodi:docname="historie.svg"
   xmlns:inkscape="http://www.inkscape.org/namespaces/inkscape"
   xmlns:sodipodi="http://sodipodi.sourceforge.net/DTD/sodipodi-0.dtd"
   xmlns="http://www.w3.org/2000/svg"
   xmlns:svg="http://www.w3.org/2000/svg">
  <sodipodi:namedview
     id="namedview1"
     pagecolor="#ffffff"
     bordercolor="#000000"
     borderopacity="0.25"
     inkscape:showpageshadow="2"
     inkscape:pageopacity="0.0"
     inkscape:pagecheckerboard="0"
     inkscape:deskcolor="#d1d1d1"
     inkscape:document-units="mm"
     inkscape:zoom="1.0449705"
     inkscape:cx="396.6619"
     inkscape:cy="561.25984"
     inkscape:window-width="3440"
     inkscape:window-height="1369"
     inkscape:window-x="1912"
     inkscape:window-y="-8"
     inkscape:window-maximized="1"
     inkscape:current-layer="layer1" />
  <defs
     id="defs1">
    <clipPath
       clipPathUnits="userSpaceOnUse"
       id="clipEmfPath1">
      <path
         d="M -2.3998754,0.47997507 H 1229.3761 V 665.08546 H -2.3998754 Z"
         id="path1" />
    </clipPath>
    <pattern
       id="EMFhbasepattern"
       patternUnits="userSpaceOnUse"
       width="6"
       height="6"
       x="0"
       y="0" />
  </defs>
  <g
     inkscape:label="Laag 1"
     inkscape:groupmode="layer"
     id="layer1">
    <path
       style="fill:#c2f1c8;fill-opacity:1;fill-rule:evenodd;stroke:none;stroke-width:0.264583"
       d="M 86.785673,12.507951 V 51.621919 H 209.29197 V 12.507951 Z"
       id="path2" />
    <path
       style="fill:none;stroke:#042433;stroke-width:0.529139px;stroke-linecap:butt;stroke-linejoin:miter;stroke-miterlimit:8;stroke-dasharray:none;stroke-opacity:1"
       d="M 86.785673,12.507951 H 209.29197 V 51.621919 H 86.785673 Z"
       id="path3" />
    <path
       style="fill:#c2f1c8;fill-opacity:1;fill-rule:evenodd;stroke:none;stroke-width:0.264583"
       d="M 86.785673,51.325602 V 93.953054 H 316.81306 V 51.325602 Z"
       id="path4" />
    <path
       style="fill:none;stroke:#042433;stroke-width:0.529139px;stroke-linecap:butt;stroke-linejoin:miter;stroke-miterlimit:8;stroke-dasharray:none;stroke-opacity:1"
       d="M 86.785673,51.325602 H 316.81306 V 93.953054 H 86.785673 Z"
       id="path5" />
    <path
       style="fill:#caeefb;fill-opacity:1;fill-rule:evenodd;stroke:none;stroke-width:0.264583"
       d="M 86.785673,93.953054 V 112.57875 H 316.81306 V 93.953054 Z"
       id="path6" />
    <path
       style="fill:none;stroke:#042433;stroke-width:0.529139px;stroke-linecap:butt;stroke-linejoin:miter;stroke-miterlimit:8;stroke-dasharray:none;stroke-opacity:1"
       d="M 86.785673,93.953054 H 316.81306 V 112.57875 H 86.785673 Z"
       id="path7" />
    <text
       xml:space="preserve"
       style="font-style:normal;font-variant:normal;font-weight:400;font-size:6.35px;line-height:125%;font-family:Aptos;text-align:start;letter-spacing:0px;word-spacing:0px;text-anchor:start;fill:#000000;fill-opacity:1;stroke:none;stroke-width:0.264583"
       x="16.812304"
       y="114.56104"
       id="text8"><tspan
         sodipodi:role="line"
         x="16.812304"
         y="114.56104"
         id="tspan8"
         style="stroke-width:0.264583"><tspan
           dx="0"
           dy="0"
           style="font-style:normal;font-variant:normal;font-weight:400;font-size:6.35px;font-family:Aptos;fill:#000000;stroke-width:0.264583"
           id="tspan7">2010</tspan></tspan></text>
    <text
       xml:space="preserve"
       style="font-style:normal;font-variant:normal;font-weight:400;font-size:6.35px;line-height:125%;font-family:Aptos;text-align:start;letter-spacing:0px;word-spacing:0px;text-anchor:start;fill:#000000;fill-opacity:1;stroke:none;stroke-width:0.264583"
       x="16.812304"
       y="95.935341"
       id="text10"><tspan
         sodipodi:role="line"
         x="16.812304"
         y="95.935341"
         id="tspan10"
         style="stroke-width:0.264583"><tspan
           dx="0"
           dy="0"
           style="font-style:normal;font-variant:normal;font-weight:400;font-size:6.35px;font-family:Aptos;fill:#000000;stroke-width:0.264583"
           id="tspan9">2012</tspan></tspan></text>
    <text
       xml:space="preserve"
       style="font-style:normal;font-variant:normal;font-weight:400;font-size:6.35px;line-height:125%;font-family:Aptos;text-align:start;letter-spacing:0px;word-spacing:0px;text-anchor:start;fill:#000000;fill-opacity:1;stroke:none;stroke-width:0.264583"
       x="17.029818"
       y="60.941601"
       id="text12"><tspan
         sodipodi:role="line"
         x="17.029818"
         y="60.941601"
         id="tspan12"
         style="stroke-width:0.264583"><tspan
           dx="0"
           dy="0"
           style="font-style:normal;font-variant:normal;font-weight:400;font-size:6.35px;font-family:Aptos;fill:#000000;stroke-width:0.264583"
           id="tspan11">2018</tspan></tspan></text>
    <text
       xml:space="preserve"
       style="font-style:normal;font-variant:normal;font-weight:400;font-size:6.35px;line-height:125%;font-family:Aptos;text-align:start;letter-spacing:0px;word-spacing:0px;text-anchor:start;fill:#000000;fill-opacity:1;stroke:none;stroke-width:0.264583"
       x="79.91803"
       y="154.35231"
       id="text14"><tspan
         sodipodi:role="line"
         x="79.91803"
         y="154.35231"
         id="tspan14"
         style="stroke-width:0.264583"><tspan
           dx="0"
           dy="0"
           style="font-style:normal;font-variant:normal;font-weight:400;font-size:6.35px;font-family:Aptos;fill:#000000;stroke-width:0.264583"
           id="tspan13">2010</tspan></tspan></text>
    <text
       xml:space="preserve"
       style="font-style:normal;font-variant:normal;font-weight:400;font-size:6.35px;line-height:125%;font-family:Aptos;text-align:start;letter-spacing:0px;word-spacing:0px;text-anchor:start;fill:#000000;fill-opacity:1;stroke:none;stroke-width:0.264583"
       x="122.35793"
       y="154.35231"
       id="text16"><tspan
         sodipodi:role="line"
         x="122.35793"
         y="154.35231"
         id="tspan16"
         style="stroke-width:0.264583"><tspan
           dx="0"
           dy="0"
           style="font-style:normal;font-variant:normal;font-weight:400;font-size:6.35px;font-family:Aptos;fill:#000000;stroke-width:0.264583"
           id="tspan15">2012</tspan></tspan></text>
    <text
       xml:space="preserve"
       style="font-style:normal;font-variant:normal;font-weight:400;font-size:6.35px;line-height:125%;font-family:Aptos;text-align:start;letter-spacing:0px;word-spacing:0px;text-anchor:start;fill:#000000;fill-opacity:1;stroke:none;stroke-width:0.264583"
       x="200.74696"
       y="154.35231"
       id="text18"><tspan
         sodipodi:role="line"
         x="200.74696"
         y="154.35231"
         id="tspan18"
         style="stroke-width:0.264583"><tspan
           dx="0"
           dy="0"
           style="font-style:normal;font-variant:normal;font-weight:400;font-size:6.35px;font-family:Aptos;fill:#000000;stroke-width:0.264583"
           id="tspan17">2018</tspan></tspan></text>
    <path
       style="fill:#c2f1c8;fill-opacity:1;fill-rule:evenodd;stroke:none;stroke-width:0.264583"
       d="M 86.764509,18.201488 V 76.618454 H 209.27081 V 18.201488 Z"
       id="path18" />
    <path
       style="fill:#f2cfee;fill-opacity:1;fill-rule:evenodd;stroke:none;stroke-width:0.264583"
       d="M 209.29197,12.338626 V 58.394901 H 316.81306 V 12.338626 Z"
       id="path19" />
    <path
       style="fill:none;stroke:#042433;stroke-width:0.529139px;stroke-linecap:butt;stroke-linejoin:miter;stroke-miterlimit:8;stroke-dasharray:none;stroke-opacity:1"
       d="M 209.29197,12.338626 H 316.81306 V 58.394901 H 209.29197 Z"
       id="path20" />
    <path
       style="fill:none;stroke:#000000;stroke-width:0.529139px;stroke-linecap:butt;stroke-linejoin:miter;stroke-miterlimit:8;stroke-dasharray:none;stroke-opacity:1"
       d="M 86.828006,12.296295 H 317.06706 V 112.57875 H 86.828006 Z"
       id="path21" />
    <path
       style="fill:#156082;fill-opacity:1;fill-rule:nonzero;stroke:#156082;stroke-width:0.0105828px;stroke-linecap:butt;stroke-linejoin:round;stroke-miterlimit:10;stroke-dasharray:none;stroke-opacity:1"
       d="m 209.27081,58.680635 h -4.23311 v 0.52914 h 4.23311 z m -5.82053,0 h -4.23312 v 0.52914 h 4.23312 z m -5.82053,0 h -4.23311 v 0.52914 h 4.23311 z m -5.82053,0 h -4.23312 v 0.52914 h 4.23312 z m -5.82053,0 h -4.23312 v 0.52914 h 4.23312 z m -5.82054,0 h -4.23311 v 0.52914 h 4.23311 z m -5.82053,0 h -4.23311 v 0.52914 h 4.23311 z m -5.82053,0 h -4.23311 v 0.52914 h 4.23311 z m -5.82053,0 h -4.23311 v 0.52914 h 4.23311 z m -5.82053,0 h -4.23311 v 0.52914 h 4.23311 z m -5.82053,0 h -4.23311 v 0.52914 h 4.23311 z m -5.82053,0 h -4.23311 v 0.52914 h 4.23311 z m -5.82053,0 h -4.23312 v 0.52914 h 4.23312 z m -5.82053,0 h -4.23312 v 0.52914 h 4.23312 z m -5.82053,0 h -4.23312 v 0.52914 h 4.23312 z m -5.82053,0 h -4.23312 v 0.52914 h 4.23312 z m -5.82054,0 h -4.23311 v 0.52914 h 4.23311 z m -5.82053,0 h -4.23311 v 0.52914 h 4.23311 z m -5.82053,0 h -4.23311 v 0.52914 h 4.23311 z m -5.820527,0 h -4.233114 v 0.52914 h 4.233114 z m -5.820532,0 h -4.233114 v 0.52914 h 4.233114 z m -5.820532,0 h -4.233113 v 0.52914 h 4.233113 z m -5.820529,0 h -4.233113 v 0.52914 h 4.233113 z m -5.820531,0 h -4.233114 v 0.52914 h 4.233114 z m -5.820532,0 h -4.233114 v 0.52914 h 4.233114 z m -5.820532,0 h -4.233111 v 0.52914 h 4.233111 z m -5.820529,0 h -4.233111 v 0.52914 h 4.233111 z m -5.820531,0 h -4.23311 v 0.52914 h 4.23311 z m -5.82053,0 h -4.23312 v 0.52914 h 4.23312 z m -5.82053,0 h -4.23312 v 0.52914 h 4.23312 z m -5.82053,0 h -1.33343 v 0.52914 h 1.33343 z"
       id="path22" />
    <path
       style="fill:#156082;fill-opacity:1;fill-rule:nonzero;stroke:#156082;stroke-width:0.00529139px;stroke-linecap:butt;stroke-linejoin:round;stroke-miterlimit:10;stroke-dasharray:none;stroke-opacity:1"
       d="m 86.796256,93.688484 h -4.233114 v 0.52914 h 4.233114 z m -5.820532,0 h -4.233111 v 0.52914 h 4.233111 z m -5.820529,0 h -4.233114 v 0.52914 h 4.233114 z m -5.820531,0 H 65.10155 v 0.52914 h 4.233114 z m -5.820532,0 h -4.233114 v 0.52914 h 4.233114 z m -5.820532,0 h -4.233115 v 0.52914 H 57.6936 Z m -5.820525,0 h -4.23312 v 0.52914 h 4.23312 z m -5.82054,0 h -4.23311 v 0.52914 h 4.23311 z m -5.82053,0 h -4.23311 v 0.52914 h 4.23311 z m -5.82053,0 h -2.57161 v 0.52914 h 2.57161 z"
       id="path23" />
    <path
       style="fill:#156082;fill-opacity:1;fill-rule:nonzero;stroke:#156082;stroke-width:0.00529139px;stroke-linecap:butt;stroke-linejoin:round;stroke-miterlimit:10;stroke-dasharray:none;stroke-opacity:1"
       d="m 86.796256,112.31418 h -4.233114 v 0.52914 h 4.233114 z m -5.820532,0 h -4.233111 v 0.52914 h 4.233111 z m -5.820529,0 h -4.233114 v 0.52914 h 4.233114 z m -5.820531,0 H 65.10155 v 0.52914 h 4.233114 z m -5.820532,0 h -4.233114 v 0.52914 h 4.233114 z m -5.820532,0 h -4.233115 v 0.52914 H 57.6936 Z m -5.820525,0 h -4.23312 v 0.52914 h 4.23312 z m -5.82054,0 h -4.23311 v 0.52914 h 4.23311 z m -5.82053,0 h -4.23311 v 0.52914 h 4.23311 z m -5.82053,0 h -2.57161 v 0.52914 h 2.57161 z"
       id="path24" />
    <path
       style="fill:#156082;fill-opacity:1;fill-rule:nonzero;stroke:#156082;stroke-width:0.00529139px;stroke-linecap:butt;stroke-linejoin:round;stroke-miterlimit:10;stroke-dasharray:none;stroke-opacity:1"
       d="m 86.521105,147.23737 v -4.23312 h 0.529138 v 4.23312 z m 0,-5.82054 v -4.23311 h 0.529138 v 4.23311 z m 0,-5.82053 v -4.23311 h 0.529138 v 4.23311 z m 0,-5.82053 v -4.23311 h 0.529138 v 4.23311 z m 0,-5.82053 v -4.23311 h 0.529138 v 4.23311 z m 0,-5.82053 v -4.23311 h 0.529138 v 4.23311 z"
       id="path25" />
    <path
       style="fill:#156082;fill-opacity:1;fill-rule:nonzero;stroke:#156082;stroke-width:0.00529139px;stroke-linecap:butt;stroke-linejoin:round;stroke-miterlimit:10;stroke-dasharray:none;stroke-opacity:1"
       d="m 129.72003,146.75056 v -4.23311 h -0.52914 v 4.23311 z m 0,-5.82053 v -4.23312 h -0.52914 v 4.23312 z m 0,-5.82053 v -4.23312 h -0.52914 v 4.23312 z m 0,-5.82054 v -4.23311 h -0.52914 v 4.23311 z m 0,-5.82053 v -4.23311 h -0.52914 v 4.23311 z m 0,-5.82053 v -4.23311 h -0.52914 v 4.23311 z m 0,-5.82053 v -4.23311 h -0.52914 v 4.23311 z m 0,-5.82053 v -4.23311 h -0.52914 v 4.23311 z m 0,-5.82052 v -4.233119 h -0.52914 v 4.233119 z m 0,-5.820537 v -0.45506 h -0.52914 v 0.45506 z"
       id="path26" />
    <path
       style="fill:#156082;fill-opacity:1;fill-rule:nonzero;stroke:#156082;stroke-width:0.0105828px;stroke-linecap:butt;stroke-linejoin:round;stroke-miterlimit:10;stroke-dasharray:none;stroke-opacity:1"
       d="m 208.70992,147.23737 0.0423,-4.23312 -0.52914,-0.0106 -0.0423,4.23311 z m 0.0635,-5.82054 0.0318,-4.23311 -0.52914,-0.0106 -0.0317,4.23311 z m 0.0529,-5.82053 0.0423,-4.23311 -0.52914,-0.0106 -0.0423,4.23311 z m 0.0529,-5.82053 0.0423,-4.23311 -0.52914,-0.0106 -0.0423,4.23311 z m 0.0529,-5.82053 0.0423,-4.23311 -0.52914,-0.0106 -0.0423,4.23312 z m 0.0529,-5.82053 0.0423,-4.23311 -0.52914,-0.0106 -0.0423,4.23312 z m 0.0635,-5.82053 0.0318,-4.23311 -0.52914,-0.0106 -0.0317,4.23312 z m 0.0529,-5.82053 0.0423,-4.23311 -0.52914,-0.0106 -0.0423,4.23311 z m 0.0529,-5.82053 0.0423,-4.233112 -0.52914,-0.01058 -0.0423,4.233112 z m 0.0529,-5.82053 0.0423,-4.233114 -0.52913,-0.01058 -0.0423,4.233111 z m 0.0529,-5.820532 0.0423,-4.233111 -0.52914,-0.01058 -0.0423,4.233113 z m 0.0635,-5.820529 0.0318,-4.233114 h -0.52914 l -0.0317,4.222531 z m 0.0529,-5.820532 0.0318,-4.233113 h -0.52914 l -0.0317,4.233113 z m 0.0529,-5.820531 0.0423,-4.233114 h -0.52898 l -0.0423,4.233114 z m 0.0529,-5.82053 0.0423,-4.233113 h -0.52914 l -0.0423,4.233113 z m 0.0529,-5.820531 V 59.80241 l -0.52914,-0.01058 v 0.137576 z"
       id="path27" />
    <text
       xml:space="preserve"
       style="font-style:normal;font-variant:normal;font-weight:400;font-size:6.35px;line-height:125%;font-family:Aptos;text-align:start;letter-spacing:0px;word-spacing:0px;text-anchor:start;fill:#000000;fill-opacity:1;stroke:none;stroke-width:0.264583"
       x="309.91721"
       y="155.24849"
       id="text28"><tspan
         sodipodi:role="line"
         x="309.91721"
         y="155.24849"
         id="tspan28"
         style="stroke-width:0.264583"><tspan
           dx="0"
           dy="0"
           style="font-style:normal;font-variant:normal;font-weight:400;font-size:6.35px;font-family:Aptos;fill:#000000;stroke-width:0.264583"
           id="tspan27">2024</tspan></tspan></text>
    <text
       xml:space="preserve"
       style="font-style:normal;font-variant:normal;font-weight:400;font-size:6.35px;line-height:125%;font-family:Arial;text-align:start;letter-spacing:0px;word-spacing:0px;text-anchor:start;fill:#000000;fill-opacity:1;stroke:none;stroke-width:0.264583"
       x="17.725008"
       y="15.05804"
       id="text30"><tspan
         sodipodi:role="line"
         x="17.725008"
         y="15.05804"
         id="tspan30"
         style="stroke-width:0.264583"><tspan
           dx="0"
           dy="0"
           style="font-style:normal;font-variant:normal;font-weight:400;font-size:6.35px;font-family:Arial;fill:#000000;stroke-width:0.264583"
           id="tspan29">2024</tspan></tspan></text>
    <path
       style="fill:#156082;fill-opacity:1;fill-rule:nonzero;stroke:#156082;stroke-width:0.0105828px;stroke-linecap:butt;stroke-linejoin:round;stroke-miterlimit:4;stroke-dasharray:none;stroke-opacity:1"
       d="m 316.5485,147.78767 v -4.23311 h 0.52914 v 4.23311 z m 0,-5.82053 v -4.23312 h 0.52914 v 4.23312 z m 0,-5.82053 v -4.23311 h 0.52914 v 4.23311 z m 0,-5.82053 v -4.23312 h 0.52914 v 4.23312 z m 0,-5.82053 v -4.23312 h 0.52914 v 4.23312 z m 0,-5.82054 v -4.23311 h 0.52914 v 4.23311 z"
       id="path30" />
    <path
       style="fill:#156082;fill-opacity:1;fill-rule:nonzero;stroke:#156082;stroke-width:0.00529139px;stroke-linecap:butt;stroke-linejoin:round;stroke-miterlimit:4;stroke-dasharray:none;stroke-opacity:1"
       d="m 88.997476,12.031726 h -4.233114 v 0.529139 h 4.233114 z m -5.820532,0 H 78.94383 v 0.529139 h 4.233114 z m -5.820532,0 h -4.233111 v 0.529139 h 4.233111 z m -5.820529,0 h -4.233114 v 0.529139 h 4.233114 z m -5.820532,0 h -4.233113 v 0.529139 h 4.233113 z m -5.820531,0 h -4.233114 v 0.529139 h 4.233114 z m -5.820525,0 h -4.23312 v 0.529139 h 4.23312 z m -5.82054,0 h -4.23311 v 0.529139 h 4.23311 z m -5.82053,0 h -4.23311 v 0.529139 h 4.23311 z m -5.82053,0 h -2.57162 v 0.529139 h 2.57162 z"
       id="path31" />
    <path
       style="fill:#156082;fill-opacity:1;fill-rule:nonzero;stroke:#156082;stroke-width:0.00529139px;stroke-linecap:butt;stroke-linejoin:round;stroke-miterlimit:4;stroke-dasharray:none;stroke-opacity:1"
       d="m 18.209235,170.46658 h 92.176045 v 1.05827 H 18.209235 Z m 91.646905,-1.05828 3.17483,1.58741 -3.17483,1.58742 z"
       id="path32" />
    <path
       style="fill:#156082;fill-opacity:1;fill-rule:nonzero;stroke:#156082;stroke-width:0.00529139px;stroke-linecap:butt;stroke-linejoin:round;stroke-miterlimit:4;stroke-dasharray:none;stroke-opacity:1"
       d="M 8.3249148,165.65141 V 59.643668 h -1.05828 V 165.65141 Z m 1.05828,-105.478602 -1.58742,-3.174836 -1.58742,3.174836 z"
       id="path33" />
    <path
       style="fill:#ffffff;fill-opacity:1;fill-rule:evenodd;stroke:none;stroke-width:0.264583"
       d="m 43.036445,165.85248 v 10.24414 h 51.686318 v -10.24414 z"
       id="path34" />
    <text
       xml:space="preserve"
       style="font-style:normal;font-variant:normal;font-weight:400;font-size:6.35px;line-height:125%;font-family:Arial;text-align:start;letter-spacing:0px;word-spacing:0px;text-anchor:start;fill:#000000;fill-opacity:1;stroke:none;stroke-width:0.264583"
       x="45.581032"
       y="172.97801"
       id="text35"><tspan
         sodipodi:role="line"
         x="45.581032"
         y="172.97801"
         id="tspan35"
         style="stroke-width:0.264583"><tspan
           dx="0"
           dy="0"
           style="font-style:normal;font-variant:normal;font-weight:400;font-size:6.35px;font-family:Arial;fill:#156082;stroke-width:0.264583"
           id="tspan34">tijdlijn geldigheid</tspan></tspan></text>
    <path
       style="fill:#ffffff;fill-opacity:1;fill-rule:evenodd;stroke:none;stroke-width:0.264583"
       d="M 2.0599048,159.67214 V 108.79011 H 12.346375 v 50.88203 z"
       id="path35" />
    <text
       xml:space="preserve"
       style="font-style:normal;font-variant:normal;font-weight:400;font-size:6.35px;line-height:125%;font-family:Arial;text-align:start;letter-spacing:0px;word-spacing:0px;text-anchor:start;fill:#000000;fill-opacity:1;stroke:none;stroke-width:0.264583"
       transform="rotate(-90)"
       x="-157.14919"
       y="9.2090931"
       id="text37"><tspan
         sodipodi:role="line"
         x="-157.14919"
         y="9.2090931"
         id="tspan37"
         style="stroke-width:0.264583"><tspan
           dx="0"
           dy="0"
           style="font-style:normal;font-variant:normal;font-weight:400;font-size:6.35px;font-family:Arial;fill:#156082;stroke-width:0.264583"
           id="tspan36">tijdlijn registratie</tspan></tspan></text>
    <path
       style="fill:#caeefb;fill-opacity:1;fill-rule:evenodd;stroke:none;stroke-width:0.264583"
       d="m 113.89876,99.053956 v 8.550884 H 192.804 v -8.550884 z"
       id="path37" />
    <text
       xml:space="preserve"
       style="font-style:normal;font-variant:normal;font-weight:400;font-size:4.96094px;line-height:125%;font-family:Arial;text-align:start;letter-spacing:0px;word-spacing:0px;text-anchor:start;fill:#000000;fill-opacity:1;stroke:none;stroke-width:0.264583"
       x="116.47324"
       y="104.93231"
       id="text39"><tspan
         sodipodi:role="line"
         x="116.47324"
         y="104.93231"
         id="tspan39"
         style="stroke-width:0.264583"><tspan
           dx="0"
           dy="0"
           style="font-style:normal;font-variant:normal;font-weight:400;font-size:4.96094px;font-family:Arial;fill:#156082;stroke-width:0.264583"
           id="tspan38">Coolsingel 42, 3011 AD Rotterdam</tspan></tspan></text>
    <path
       style="fill:#c2f1c8;fill-opacity:1;fill-rule:evenodd;stroke:none;stroke-width:0.264583"
       d="m 111.40123,53.463324 v 8.550889 h 78.94756 v -8.550889 z"
       id="path39" />
    <text
       xml:space="preserve"
       style="font-style:normal;font-variant:normal;font-weight:400;font-size:4.96094px;line-height:125%;font-family:Arial;text-align:start;letter-spacing:0px;word-spacing:0px;text-anchor:start;fill:#000000;fill-opacity:1;stroke:none;stroke-width:0.264583"
       x="113.98031"
       y="59.323074"
       id="text41"><tspan
         sodipodi:role="line"
         x="113.98031"
         y="59.323074"
         id="tspan41"
         style="stroke-width:0.264583"><tspan
           dx="0"
           dy="0"
           style="font-style:normal;font-variant:normal;font-weight:400;font-size:4.96094px;font-family:Arial;fill:#156082;stroke-width:0.264583"
           id="tspan40">Coolsingel 40, 3011 AD Rotterdam</tspan></tspan></text>
    <path
       style="fill:#f2cfee;fill-opacity:1;fill-rule:evenodd;stroke:none;stroke-width:0.264583"
       d="m 209.69412,48.171933 v 8.550888 h 82.88437 v -8.550888 z"
       id="path41" />
    <text
       xml:space="preserve"
       style="font-style:normal;font-variant:normal;font-weight:400;font-size:4.96094px;line-height:125%;font-family:Arial;text-align:start;letter-spacing:0px;word-spacing:0px;text-anchor:start;fill:#000000;fill-opacity:1;stroke:none;stroke-width:0.264583"
       x="212.2491"
       y="54.036102"
       id="text43"><tspan
         sodipodi:role="line"
         x="212.2491"
         y="54.036102"
         id="tspan43"
         style="stroke-width:0.264583"><tspan
           dx="0"
           dy="0"
           style="font-style:normal;font-variant:normal;font-weight:400;font-size:4.96094px;font-family:Arial;fill:#156082;stroke-width:0.264583"
           id="tspan42">Korte lijnbaan 6, 3012 ED Rotterdam</tspan></tspan></text>
    <path
       style="fill:#156082;fill-opacity:1;fill-rule:evenodd;stroke:none;stroke-width:0.264583"
       d="m 127.12724,94.228205 c 0,-1.084734 0.95245,-1.968397 2.11656,-1.968397 1.1694,0 2.11656,0.883663 2.11656,1.968397 0,1.090028 -0.94716,1.968399 -2.11656,1.968399 -1.16411,0 -2.11656,-0.878371 -2.11656,-1.968399 z"
       id="path43" />
    <path
       style="fill:none;stroke:#042433;stroke-width:0.529139px;stroke-linecap:butt;stroke-linejoin:miter;stroke-miterlimit:8;stroke-dasharray:none;stroke-opacity:1"
       d="m 127.12724,94.228205 c 0,-1.084734 0.95245,-1.968397 2.11656,-1.968397 1.1694,0 2.11656,0.883663 2.11656,1.968397 0,1.090028 -0.94716,1.968399 -2.11656,1.968399 -1.16411,0 -2.11656,-0.878371 -2.11656,-1.968399"
       id="path44" />
    <path
       style="fill:#156082;fill-opacity:1;fill-rule:evenodd;stroke:none;stroke-width:0.264583"
       d="m 84.753778,112.57875 c 0,-1.09532 0.952453,-1.98957 2.116559,-1.98957 1.169397,0 2.116555,0.89425 2.116555,1.98957 0,1.10061 -0.947158,1.98956 -2.116555,1.98956 -1.164106,0 -2.116559,-0.88895 -2.116559,-1.98956 z"
       id="path45" />
    <path
       style="fill:none;stroke:#61cbf4;stroke-width:1.05828px;stroke-linecap:butt;stroke-linejoin:miter;stroke-miterlimit:8;stroke-dasharray:none;stroke-opacity:1"
       d="m 84.753778,112.57875 c 0,-1.09532 0.952453,-1.98957 2.116559,-1.98957 1.169397,0 2.116555,0.89425 2.116555,1.98957 0,1.10061 -0.947158,1.98956 -2.116555,1.98956 -1.164106,0 -2.116559,-0.88895 -2.116559,-1.98956"
       id="path46" />
    <path
       style="fill:#156082;fill-opacity:1;fill-rule:evenodd;stroke:none;stroke-width:0.264583"
       d="m 207.17542,58.966372 c 0,-1.079445 0.95245,-1.9684 2.11655,-1.9684 1.17469,0 2.11656,0.888955 2.11656,1.9684 0,1.090025 -0.94187,1.968397 -2.11656,1.968397 -1.1641,0 -2.11655,-0.878372 -2.11655,-1.968397 z"
       id="path47" />
    <path
       style="fill:none;stroke:#61cbf4;stroke-width:1.05828px;stroke-linecap:butt;stroke-linejoin:miter;stroke-miterlimit:8;stroke-dasharray:none;stroke-opacity:1"
       d="m 207.17542,58.966372 c 0,-1.079445 0.95245,-1.9684 2.11655,-1.9684 1.17469,0 2.11656,0.888955 2.11656,1.9684 0,1.090025 -0.94187,1.968397 -2.11656,1.968397 -1.1641,0 -2.11655,-0.878372 -2.11655,-1.968397"
       id="path48" />
    <path
       style="fill:#61cbf4;fill-opacity:1;fill-rule:evenodd;stroke:none;stroke-width:0.264583"
       d="m 84.626786,93.931887 c 0,-1.084733 0.95245,-1.968396 2.116556,-1.968396 1.169397,0 2.116558,0.883663 2.116558,1.968396 0,1.090028 -0.947161,1.9684 -2.116558,1.9684 -1.164106,0 -2.116556,-0.878372 -2.116556,-1.9684 z"
       id="path49" />
    <path
       style="fill:none;stroke:#156082;stroke-width:0.529139px;stroke-linecap:butt;stroke-linejoin:miter;stroke-miterlimit:8;stroke-dasharray:none;stroke-opacity:1"
       d="m 84.626786,93.931887 c 0,-1.084733 0.95245,-1.968396 2.116556,-1.968396 1.169397,0 2.116558,0.883663 2.116558,1.968396 0,1.090028 -0.947161,1.9684 -2.116558,1.9684 -1.164106,0 -2.116556,-0.878372 -2.116556,-1.9684"
       id="path50" />
    <path
       style="fill:none;stroke:#156082;stroke-width:0.26457px;stroke-linecap:butt;stroke-linejoin:round;stroke-miterlimit:10;stroke-dasharray:none;stroke-opacity:1"
       d="m 112.88282,167.24941 h 55.7501 v 8.55089 h -55.7501 z"
       id="path51" />
    <text
       xml:space="preserve"
       style="font-style:normal;font-variant:normal;font-weight:400;font-size:4.96094px;line-height:125%;font-family:Arial;text-align:start;letter-spacing:0px;word-spacing:0px;text-anchor:start;fill:#000000;fill-opacity:1;stroke:none;stroke-width:0.264583"
       x="115.45966"
       y="173.11911"
       id="text52"><tspan
         sodipodi:role="line"
         x="115.45966"
         y="173.11911"
         id="tspan52"
         style="stroke-width:0.264583"><tspan
           dx="0"
           dy="0"
           style="font-style:normal;font-variant:normal;font-weight:400;font-size:4.96094px;font-family:Arial;fill:#156082;stroke-width:0.264583"
           id="tspan51">MATERIËLE </tspan></tspan></text>
    <text
       xml:space="preserve"
       style="font-style:normal;font-variant:normal;font-weight:400;font-size:4.96094px;line-height:125%;font-family:Arial;text-align:start;letter-spacing:0px;word-spacing:0px;text-anchor:start;fill:#000000;fill-opacity:1;stroke:none;stroke-width:0.264583"
       x="142.08594"
       y="173.11911"
       id="text54"><tspan
         sodipodi:role="line"
         x="142.08594"
         y="173.11911"
         id="tspan54"
         style="stroke-width:0.264583"><tspan
           dx="0"
           dy="0"
           style="font-style:normal;font-variant:normal;font-weight:400;font-size:4.96094px;font-family:Arial;fill:#156082;stroke-width:0.264583"
           id="tspan53">HISTORIE</tspan></tspan></text>
    <path
       style="fill:none;stroke:#156082;stroke-width:0.999948px;stroke-linecap:butt;stroke-linejoin:round;stroke-miterlimit:4;stroke-dasharray:none;stroke-opacity:1"
       clip-path="url(#clipEmfPath1)"
       d="M 6.4796634,191.91003 V 0.8799543 H 38.797985 V 191.91003 Z"
       id="path54"
       transform="matrix(0.26458333,0,0,0.26458333,2.0387448,2.5601343)" />
    <text
       xml:space="preserve"
       style="font-style:normal;font-variant:normal;font-weight:400;font-size:4.96094px;line-height:125%;font-family:Arial;text-align:start;letter-spacing:0px;word-spacing:0px;text-anchor:start;fill:#000000;fill-opacity:1;stroke:none;stroke-width:0.264583"
       transform="rotate(-90)"
       x="-50.806797"
       y="9.6311817"
       id="text56"><tspan
         sodipodi:role="line"
         x="-50.806797"
         y="9.6311817"
         id="tspan56"
         style="stroke-width:0.264583"><tspan
           dx="0"
           dy="0"
           style="font-style:normal;font-variant:normal;font-weight:400;font-size:4.96094px;font-family:Arial;fill:#156082;stroke-width:0.264583"
           id="tspan55">FORMELE HISTORIE</tspan></tspan></text>
    <path
       style="fill:none;stroke:#156082;stroke-width:0.529139px;stroke-linecap:butt;stroke-linejoin:miter;stroke-miterlimit:8;stroke-dasharray:none;stroke-opacity:1"
       d="m 7.7957748,167.05892 v 4.50826"
       id="path56" />
    <path
       style="fill:none;stroke:#156082;stroke-width:0.529139px;stroke-linecap:butt;stroke-linejoin:miter;stroke-miterlimit:8;stroke-dasharray:none;stroke-opacity:1"
       d="M 8.0497648,171.2497 H 15.171975"
       id="path57" />
    <path
       style="fill:#e97132;fill-opacity:1;fill-rule:evenodd;stroke:none;stroke-width:0.264583"
       d="m 98.299741,102.1018 h 4.661719 l 1.43396,-3.915632 1.43926,3.915632 h 4.65643 l -3.76747,2.41816 1.43926,3.91034 -3.76748,-2.41817 -3.76746,2.41817 1.43925,-3.91034 z"
       id="path58" />
    <path
       style="fill:none;stroke:#c04f15;stroke-width:0.529139px;stroke-linecap:butt;stroke-linejoin:miter;stroke-miterlimit:8;stroke-dasharray:none;stroke-opacity:1"
       d="m 98.299741,102.1018 h 4.661719 l 1.43396,-3.915632 1.43926,3.915632 h 4.65643 l -3.76747,2.41816 1.43926,3.91034 -3.76748,-2.41817 -3.76746,2.41817 1.43925,-3.91034 z"
       id="path59" />
    <text
       xml:space="preserve"
       style="font-style:normal;font-variant:normal;font-weight:400;font-size:4.23333px;line-height:125%;font-family:Arial;text-align:start;letter-spacing:0px;word-spacing:0px;text-anchor:start;fill:#000000;fill-opacity:1;stroke:none;stroke-width:0.264583"
       x="103.26205"
       y="105.39828"
       id="text60"><tspan
         sodipodi:role="line"
         x="103.26205"
         y="105.39828"
         id="tspan60"
         style="stroke-width:0.264583"><tspan
           dx="0"
           dy="0"
           style="font-style:normal;font-variant:normal;font-weight:400;font-size:4.23333px;font-family:Arial;fill:#ffffff;stroke-width:0.264583"
           id="tspan59">1</tspan></tspan></text>
    <path
       style="fill:#e97132;fill-opacity:1;fill-rule:evenodd;stroke:none;stroke-width:0.264583"
       d="m 171.82892,40.319507 h 4.65642 l 1.43926,-3.936797 1.43926,3.936797 h 4.65643 l -3.76747,2.423456 1.43925,3.926213 -3.76747,-2.423456 -3.76747,2.423456 1.43926,-3.926213 z"
       id="path60" />
    <path
       style="fill:none;stroke:#c04f15;stroke-width:0.529139px;stroke-linecap:butt;stroke-linejoin:miter;stroke-miterlimit:8;stroke-dasharray:none;stroke-opacity:1"
       d="m 171.82892,40.319507 h 4.65642 l 1.43926,-3.936797 1.43926,3.936797 h 4.65643 l -3.76747,2.423456 1.43925,3.926213 -3.76747,-2.423456 -3.76747,2.423456 1.43926,-3.926213 z"
       id="path61" />
    <text
       xml:space="preserve"
       style="font-style:normal;font-variant:normal;font-weight:400;font-size:4.23333px;line-height:125%;font-family:Arial;text-align:start;letter-spacing:0px;word-spacing:0px;text-anchor:start;fill:#000000;fill-opacity:1;stroke:none;stroke-width:0.264583"
       x="176.78793"
       y="43.623737"
       id="text62"><tspan
         sodipodi:role="line"
         x="176.78793"
         y="43.623737"
         id="tspan62"
         style="stroke-width:0.264583"><tspan
           dx="0"
           dy="0"
           style="font-style:normal;font-variant:normal;font-weight:400;font-size:4.23333px;font-family:Arial;fill:#ffffff;stroke-width:0.264583"
           id="tspan61">4</tspan></tspan></text>
    <path
       style="fill:#e97132;fill-opacity:1;fill-rule:evenodd;stroke:none;stroke-width:0.264583"
       d="m 239.30475,39.240062 h 4.65642 l 1.43926,-3.915629 1.43926,3.915629 h 4.65643 l -3.76747,2.423457 1.43926,3.905049 -3.76748,-2.412876 -3.76747,2.412876 1.43926,-3.905049 z"
       id="path62" />
    <path
       style="fill:none;stroke:#c04f15;stroke-width:0.529139px;stroke-linecap:butt;stroke-linejoin:miter;stroke-miterlimit:8;stroke-dasharray:none;stroke-opacity:1"
       d="m 239.30475,39.240062 h 4.65642 l 1.43926,-3.915629 1.43926,3.915629 h 4.65643 l -3.76747,2.423457 1.43926,3.905049 -3.76748,-2.412876 -3.76747,2.412876 1.43926,-3.905049 z"
       id="path63" />
    <text
       xml:space="preserve"
       style="font-style:normal;font-variant:normal;font-weight:400;font-size:4.23333px;line-height:125%;font-family:Arial;text-align:start;letter-spacing:0px;word-spacing:0px;text-anchor:start;fill:#000000;fill-opacity:1;stroke:none;stroke-width:0.264583"
       x="244.25755"
       y="42.557293"
       id="text64"><tspan
         sodipodi:role="line"
         x="244.25755"
         y="42.557293"
         id="tspan64"
         style="stroke-width:0.264583"><tspan
           dx="0"
           dy="0"
           style="font-style:normal;font-variant:normal;font-weight:400;font-size:4.23333px;font-family:Arial;fill:#ffffff;stroke-width:0.264583"
           id="tspan63">3</tspan></tspan></text>
    <path
       style="fill:#e97132;fill-opacity:1;fill-rule:evenodd;stroke:none;stroke-width:0.264583"
       d="m 98.299741,75.094533 h 4.661719 l 1.43396,-3.91563 1.43926,3.91563 h 4.65643 l -3.76747,2.418167 1.43926,3.910338 -3.76748,-2.418167 -3.76746,2.418167 1.43925,-3.910338 z"
       id="path64" />
    <path
       style="fill:none;stroke:#c04f15;stroke-width:0.529139px;stroke-linecap:butt;stroke-linejoin:miter;stroke-miterlimit:8;stroke-dasharray:none;stroke-opacity:1"
       d="m 98.299741,75.094533 h 4.661719 l 1.43396,-3.91563 1.43926,3.91563 h 4.65643 l -3.76747,2.418167 1.43926,3.910338 -3.76748,-2.418167 -3.76746,2.418167 1.43925,-3.910338 z"
       id="path65" />
    <text
       xml:space="preserve"
       style="font-style:normal;font-variant:normal;font-weight:400;font-size:4.23333px;line-height:125%;font-family:Arial;text-align:start;letter-spacing:0px;word-spacing:0px;text-anchor:start;fill:#000000;fill-opacity:1;stroke:none;stroke-width:0.264583"
       x="103.26205"
       y="78.393234"
       id="text66"><tspan
         sodipodi:role="line"
         x="103.26205"
         y="78.393234"
         id="tspan66"
         style="stroke-width:0.264583"><tspan
           dx="0"
           dy="0"
           style="font-style:normal;font-variant:normal;font-weight:400;font-size:4.23333px;font-family:Arial;fill:#ffffff;stroke-width:0.264583"
           id="tspan65">2</tspan></tspan></text>
  </g>
</svg>
