<?xml version="1.0" encoding="UTF-8" standalone="no"?>
<!-- Created with Inkscape (http://www.inkscape.org/) -->

<svg
   width="205mm"
   height="38mm"
   viewBox="0 0 205 38"
   version="1.1"
   id="svg1"
   inkscape:version="1.3.2 (091e20e, 2023-11-25, custom)"
   sodipodi:docname="visie5.svg"
   xmlns:inkscape="http://www.inkscape.org/namespaces/inkscape"
   xmlns:sodipodi="http://sodipodi.sourceforge.net/DTD/sodipodi-0.dtd"
   xmlns="http://www.w3.org/2000/svg"
   xmlns:svg="http://www.w3.org/2000/svg">
  <sodipodi:namedview
     id="namedview1"
     pagecolor="#ffffff"
     bordercolor="#000000"
     borderopacity="0.25"
     inkscape:showpageshadow="2"
     inkscape:pageopacity="0.0"
     inkscape:pagecheckerboard="0"
     inkscape:deskcolor="#d1d1d1"
     inkscape:document-units="mm"
     inkscape:zoom="0.69219276"
     inkscape:cx="396.56583"
     inkscape:cy="561.25984"
     inkscape:window-width="1920"
     inkscape:window-height="991"
     inkscape:window-x="3206"
     inkscape:window-y="1791"
     inkscape:window-maximized="1"
     inkscape:current-layer="layer1" />
  <defs
     id="defs1" />
  <g
     inkscape:label="Laag 1"
     inkscape:groupmode="layer"
     id="layer1">
    <g
       transform="matrix(0.26458333,0,0,0.26458333,-79.606318,-49.494216)"
       id="g10">
      <rect
         x="306.5"
         y="194.5"
         width="129"
         height="49"
         stroke="#172c51"
         stroke-width="1.33333"
         stroke-miterlimit="8"
         fill="#ffffff"
         id="rect1" />
      <text
         font-family="Calibri, Calibri_MSFontService, sans-serif"
         font-weight="400"
         font-size="16px"
         transform="translate(331.935,224)"
         id="text1">Bronhouder</text>
      <rect
         x="623.5"
         y="194.5"
         width="129"
         height="49"
         stroke="#172c51"
         stroke-width="1.33333"
         stroke-miterlimit="8"
         fill="#ffffff"
         id="rect2" />
      <text
         font-family="Calibri, Calibri_MSFontService, sans-serif"
         font-weight="400"
         font-size="16px"
         transform="translate(654.102,224)"
         id="text2">Aanbieder</text>
      <rect
         x="940.5"
         y="194.5"
         width="129"
         height="49"
         stroke="#172c51"
         stroke-width="1.33333"
         stroke-miterlimit="8"
         fill="#ffffff"
         id="rect3" />
      <text
         font-family="Calibri, Calibri_MSFontService, sans-serif"
         font-weight="400"
         font-size="16px"
         transform="translate(976.148,224)"
         id="text3">Afnemer</text>
      <path
         d="m 435.5,218.167 h 181.054 v 0.666 H 435.5 Z m 179.721,-3.667 8,4 -8,4 z"
         id="path3" />
      <path
         d="m 752.5,227.167 h 181.054 v 0.666 H 752.5 Z m 179.721,-3.667 8,4 -8,4 z"
         id="path4" />
      <path
         d="M 1.86424e-7,-0.333333 181.054,-0.333232 V 0.333435 L -1.86424e-7,0.333333 Z M 179.721,-3.9999 l 8,4.000004987 -8,3.999995013 z"
         transform="matrix(-1,0,0,1,940.221,210.5)"
         id="path5" />
      <rect
         x="940.5"
         y="273.5"
         width="129"
         height="49"
         stroke="#172c51"
         stroke-width="1.33333"
         stroke-miterlimit="8"
         fill="#ffffff"
         id="rect5" />
      <text
         font-family="Calibri, Calibri_MSFontService, sans-serif"
         font-weight="400"
         font-size="16px"
         transform="translate(976.148,303)"
         id="text5">Afnemer</text>
      <path
         d="M 0,0 221.763,1.04987e-4"
         stroke="#000000"
         stroke-width="0.666667"
         stroke-miterlimit="8"
         fill="none"
         fill-rule="evenodd"
         transform="matrix(-1,0,0,1,940.263,289.5)"
         id="path6" />
      <path
         d="m 704.5,305.167 h 229.319 v 0.666 H 704.5 Z m 227.986,-3.667 8,4 -8,4 z"
         id="path7" />
      <text
         font-family="Calibri, Calibri_MSFontService, sans-serif"
         font-weight="400"
         font-size="14px"
         transform="translate(801.278,200)"
         id="text7">abonneren</text>
      <text
         font-family="Calibri, Calibri_MSFontService, sans-serif"
         font-weight="400"
         font-size="14px"
         transform="translate(801.278,277)"
         id="text8">abonneren</text>
      <path
         d="M 0.333333,-7.48509e-7 0.333423,40.0871 H -0.333243 L -0.333333,7.48509e-7 Z M 4.00009,38.7538 l -3.999985013,8 -4.000014987,-8 z"
         transform="matrix(1,0,0,-1,718.5,290.254)"
         id="path8" />
      <path
         d="M 0,0 1.04987e-4,62.4036"
         stroke="#000000"
         stroke-width="0.666667"
         stroke-miterlimit="8"
         fill="none"
         fill-rule="evenodd"
         transform="matrix(1,0,0,-1,702.5,305.904)"
         id="path9" />
      <text
         font-family="Calibri, Calibri_MSFontService, sans-serif"
         font-weight="400"
         font-size="14px"
         transform="translate(803.611,246)"
         id="text9">notificatie</text>
      <text
         font-family="Calibri, Calibri_MSFontService, sans-serif"
         font-weight="400"
         font-size="14px"
         transform="translate(803.611,328)"
         id="text10">notificatie</text>
    </g>
  </g>
</svg>
