<?xml version="1.0" encoding="UTF-8" standalone="no"?>
<!-- Created with Inkscape (http://www.inkscape.org/) -->

<svg
   width="205mm"
   height="43mm"
   viewBox="0 0 205 43"
   version="1.1"
   id="svg1"
   inkscape:version="1.3.2 (091e20e, 2023-11-25, custom)"
   sodipodi:docname="visie3.svg"
   xmlns:inkscape="http://www.inkscape.org/namespaces/inkscape"
   xmlns:sodipodi="http://sodipodi.sourceforge.net/DTD/sodipodi-0.dtd"
   xmlns="http://www.w3.org/2000/svg"
   xmlns:svg="http://www.w3.org/2000/svg">
  <sodipodi:namedview
     id="namedview1"
     pagecolor="#ffffff"
     bordercolor="#000000"
     borderopacity="0.25"
     inkscape:showpageshadow="2"
     inkscape:pageopacity="0.0"
     inkscape:pagecheckerboard="0"
     inkscape:deskcolor="#d1d1d1"
     inkscape:document-units="mm"
     inkscape:zoom="0.69219276"
     inkscape:cx="396.56584"
     inkscape:cy="-5.056395"
     inkscape:window-width="1920"
     inkscape:window-height="991"
     inkscape:window-x="3206"
     inkscape:window-y="1791"
     inkscape:window-maximized="1"
     inkscape:current-layer="layer1" />
  <defs
     id="defs1" />
  <g
     inkscape:label="Laag 1"
     inkscape:groupmode="layer"
     id="layer1">
    <g
       transform="matrix(0.26458333,0,0,0.26458333,-79.289619,-86.964242)"
       id="g9">
      <rect
         x="306.5"
         y="438.5"
         width="129"
         height="49"
         stroke="#172c51"
         stroke-width="1.33333"
         stroke-miterlimit="8"
         fill="#ffffff"
         id="rect1" />
      <text
         font-family="Calibri, Calibri_MSFontService, sans-serif"
         font-weight="400"
         font-size="16px"
         transform="translate(331.935,468)"
         id="text1">Bronhouder</text>
      <rect
         x="478.5"
         y="438.5"
         width="129"
         height="49"
         stroke="#172c51"
         stroke-width="1.33333"
         stroke-miterlimit="8"
         fill="#ffffff"
         id="rect2" />
      <text
         font-family="Calibri, Calibri_MSFontService, sans-serif"
         font-weight="400"
         font-size="16px"
         transform="translate(508.746,468)"
         id="text2">Aanbieder</text>
      <rect
         x="704.5"
         y="438.5"
         width="129"
         height="49"
         stroke="#172c51"
         stroke-width="1.33333"
         stroke-miterlimit="8"
         fill="#dae3f3"
         id="rect3" />
      <text
         font-family="Calibri, Calibri_MSFontService, sans-serif"
         font-weight="400"
         font-size="16px"
         transform="translate(747.531,468)"
         id="text3">Wallet</text>
      <path
         d="m 435.5,463.167 h 35.699 v 0.666 H 435.5 Z m 34.366,-3.667 8,4 -8,4 z"
         id="path3" />
      <path
         d="m 607.5,463.167 h 90.305 v 0.667 L 607.5,463.833 Z m 88.972,-3.667 8,4 -8,4 z"
         id="path4" />
      <rect
         x="940.5"
         y="438.5"
         width="129"
         height="49"
         stroke="#172c51"
         stroke-width="1.33333"
         stroke-miterlimit="8"
         fill="#ffffff"
         id="rect4" />
      <text
         font-family="Calibri, Calibri_MSFontService, sans-serif"
         font-weight="400"
         font-size="16px"
         transform="translate(976.148,468)"
         id="text4">Afnemer</text>
      <rect
         x="811.5"
         y="335.5"
         width="129"
         height="50"
         stroke="#172c51"
         stroke-width="1.33333"
         stroke-miterlimit="8"
         fill="#ffffff"
         id="rect5" />
      <text
         font-family="Calibri, Calibri_MSFontService, sans-serif"
         font-weight="400"
         font-size="16px"
         transform="translate(843.246,365)"
         id="text5">Gebruiker</text>
      <path
         d="M 3.27229e-7,-0.333333 100.279,-0.333235 V 0.333432 L -3.27229e-7,0.333333 Z M 98.9454,-3.9999 106.945,1.04987e-4 98.9454,4.0001 Z"
         transform="matrix(1,0,0,-1,833.5,463.5)"
         id="path5" />
      <path
         d="M 0.149422,-0.297966 2.53315,0.897413 2.23431,1.49335 -0.149422,0.297966 Z M 4.32095,1.79395 6.70469,2.98933 6.40584,3.58526 4.02211,2.38988 Z M 8.49248,3.88586 10.8762,5.08124 10.5774,5.67718 8.19364,4.4818 Z M 12.664,5.97778 15.0477,7.17316 14.7489,7.76909 12.3652,6.57371 Z M 16.8355,8.06969 19.2193,9.26507 18.9204,9.861 16.5367,8.66562 Z m 4.1716,2.09191 2.3837,1.1954 -0.2988,0.5959 -2.3838,-1.1954 z m 4.1715,2.0919 2.3837,1.1954 -0.2988,0.5959 -2.3837,-1.1953 z m 4.1715,2.0919 2.3838,1.1954 -0.2989,0.5959 -2.3837,-1.1953 z m 4.1716,2.0919 2.3837,1.1954 -0.2988,0.596 -2.3838,-1.1954 z m 4.1715,2.092 2.3837,1.1953 -0.2988,0.596 -2.3837,-1.1954 z m 4.1715,2.0919 2.3838,1.1954 -0.2989,0.5959 -2.3837,-1.1954 z m 4.1716,2.0919 2.3837,1.1954 -0.2988,0.5959 -2.3838,-1.1954 z m 4.1715,2.0919 2.3837,1.1954 -0.2988,0.5959 -2.3838,-1.1954 z m 4.1715,2.0919 2.3838,1.1954 -0.2989,0.5959 -2.3837,-1.1953 z m 4.1716,2.0919 2.3837,1.1954 -0.2989,0.596 -2.3837,-1.1954 z m 4.1715,2.092 2.3837,1.1953 -0.2988,0.596 -2.3838,-1.1954 z m 4.1715,2.0919 2.3838,1.1954 -0.2989,0.5959 -2.3837,-1.1954 z m 4.1716,2.0919 2.3837,1.1954 -0.2989,0.5959 -2.3837,-1.1954 z m 4.1715,2.0919 2.3837,1.1954 -0.2988,0.5959 -2.3838,-1.1954 z m 4.1715,2.0919 2.3838,1.1954 -0.2989,0.5959 -2.3837,-1.1954 z m 4.1715,2.0919 2.3838,1.1954 -0.2989,0.5959 -2.3837,-1.1953 z m 4.1716,2.0919 2.3837,1.1954 -0.2988,0.596 -2.3838,-1.1954 z m 4.1715,2.092 2.3837,1.1953 -0.2988,0.596 -2.3837,-1.1954 z m 4.1715,2.0919 2.3838,1.1953 -0.2989,0.596 -2.3837,-1.1954 z m 4.1714,2.0919 0.869,0.4359 -0.298,0.5959 -0.8697,-0.4359 z m 1.321,-3.4394 5.358,7.1617 -8.9439,-0.0105 z"
         transform="matrix(-1,0,0,1,875.445,385.5)"
         id="path6" />
      <text
         font-family="Calibri, Calibri_MSFontService, sans-serif"
         font-weight="400"
         font-size="14px"
         transform="translate(621.389,435)"
         id="text6">verifieerbare</text>
      <text
         font-family="Calibri, Calibri_MSFontService, sans-serif"
         font-weight="400"
         font-size="14px"
         transform="translate(629.969,452)"
         id="text7">verklaring</text>
      <text
         font-family="Calibri, Calibri_MSFontService, sans-serif"
         font-weight="400"
         font-size="14px"
         transform="translate(847.814,434)"
         id="text8">verifieerbare</text>
      <text
         font-family="Calibri, Calibri_MSFontService, sans-serif"
         font-weight="400"
         font-size="14px"
         transform="translate(856.394,451)"
         id="text9">verklaring</text>
      <path
         d="m 875.628,385.192 2.463,1.023 -0.256,0.616 -2.463,-1.023 z m 4.31,1.79 2.463,1.022 -0.256,0.616 -2.463,-1.022 z m 4.31,1.789 2.462,1.023 -0.255,0.616 -2.463,-1.023 z m 4.31,1.79 2.462,1.023 -0.255,0.615 -2.463,-1.022 z m 4.309,1.79 2.463,1.022 -0.255,0.616 -2.463,-1.023 z m 4.31,1.789 2.463,1.023 -0.255,0.615 -2.463,-1.022 z m 4.31,1.79 2.463,1.022 -0.256,0.616 -2.462,-1.023 z m 4.31,1.789 2.463,1.023 -0.256,0.616 -2.462,-1.023 z m 4.31,1.79 2.463,1.022 -0.256,0.616 -2.463,-1.022 z m 4.31,1.789 2.463,1.023 -0.256,0.616 -2.463,-1.023 z m 4.31,1.79 2.463,1.023 -0.256,0.615 -2.463,-1.022 z m 4.31,1.79 2.463,1.022 -0.256,0.616 -2.463,-1.023 z m 4.31,1.789 2.462,1.023 -0.255,0.615 -2.463,-1.022 z m 4.309,1.79 2.463,1.022 -0.255,0.616 -2.463,-1.023 z m 4.31,1.789 2.463,1.023 -0.255,0.616 -2.463,-1.023 z m 4.31,1.79 2.463,1.023 -0.256,0.615 -2.462,-1.022 z m 4.31,1.79 2.463,1.022 -0.256,0.616 -2.462,-1.023 z m 4.31,1.789 2.463,1.023 -0.256,0.615 -2.463,-1.022 z m 4.31,1.79 2.463,1.022 -0.256,0.616 -2.463,-1.023 z m 4.31,1.789 2.463,1.023 -0.256,0.616 -2.463,-1.023 z m 4.31,1.79 2.463,1.022 -0.256,0.616 -2.463,-1.022 z m 4.31,1.789 2.462,1.023 -0.255,0.616 -2.463,-1.023 z m 4.31,1.79 2.462,1.023 -0.255,0.615 -2.463,-1.022 z m 4.309,1.79 2.463,1.022 -0.255,0.616 -2.463,-1.023 z m 4.31,1.789 2.463,1.023 -0.256,0.615 -2.462,-1.022 z m 4.31,1.79 2.463,1.022 -0.256,0.616 -2.462,-1.023 z m 4.31,1.789 2.463,1.023 -0.256,0.616 -2.462,-1.023 z m 4.31,1.79 2.463,1.022 -0.256,0.616 -2.463,-1.022 z m 4.31,1.789 2.325,0.966 -0.256,0.616 -2.325,-0.966 z m 2.5,-2.932 5.855,6.762 -8.923,0.627 z"
         id="path9" />
    </g>
  </g>
</svg>
