<?xml version="1.0" encoding="UTF-8" standalone="no"?>
<!-- Created with Inkscape (http://www.inkscape.org/) -->

<svg
   width="224mm"
   height="62mm"
   viewBox="0 0 224 62"
   version="1.1"
   id="svg1"
   inkscape:version="1.3.2 (091e20e, 2023-11-25, custom)"
   sodipodi:docname="visie4.svg"
   xmlns:inkscape="http://www.inkscape.org/namespaces/inkscape"
   xmlns:sodipodi="http://sodipodi.sourceforge.net/DTD/sodipodi-0.dtd"
   xmlns="http://www.w3.org/2000/svg"
   xmlns:svg="http://www.w3.org/2000/svg">
  <sodipodi:namedview
     id="namedview1"
     pagecolor="#ffffff"
     bordercolor="#000000"
     borderopacity="0.25"
     inkscape:showpageshadow="2"
     inkscape:pageopacity="0.0"
     inkscape:pagecheckerboard="0"
     inkscape:deskcolor="#d1d1d1"
     inkscape:document-units="mm"
     inkscape:zoom="0.69219276"
     inkscape:cx="396.56584"
     inkscape:cy="561.25984"
     inkscape:window-width="1920"
     inkscape:window-height="991"
     inkscape:window-x="3206"
     inkscape:window-y="1791"
     inkscape:window-maximized="1"
     inkscape:current-layer="layer1" />
  <defs
     id="defs1" />
  <g
     inkscape:label="Laag 1"
     inkscape:groupmode="layer"
     id="layer1">
    <g
       transform="matrix(0.26458333,0,0,0.26458333,-77.815629,-25.125563)"
       id="g17">
      <rect
         x="302.5"
         y="254.5"
         width="130"
         height="49"
         stroke="#172c51"
         stroke-width="1.33333"
         stroke-miterlimit="8"
         fill="#ffffff"
         id="rect1" />
      <text
         font-family="Calibri, Calibri_MSFontService, sans-serif"
         font-weight="400"
         font-size="16px"
         transform="translate(328.188,284)"
         id="text1">Bronhouder</text>
      <rect
         x="474.5"
         y="254.5"
         width="129"
         height="49"
         stroke="#172c51"
         stroke-width="1.33333"
         stroke-miterlimit="8"
         fill="#ffffff"
         id="rect2" />
      <text
         font-family="Calibri, Calibri_MSFontService, sans-serif"
         font-weight="400"
         font-size="16px"
         transform="translate(505,284)"
         id="text2">Aanbieder</text>
      <rect
         x="700.5"
         y="235.5"
         width="206"
         height="88"
         stroke="#172c51"
         stroke-width="1.33333"
         stroke-miterlimit="8"
         fill="#dae3f3"
         id="rect3" />
      <text
         font-family="Calibri, Calibri_MSFontService, sans-serif"
         font-weight="400"
         font-size="16px"
         transform="translate(712.488,255)"
         id="text3">Once</text>
      <text
         font-family="Calibri, Calibri_MSFontService, sans-serif"
         font-weight="400"
         font-size="16px"
         transform="translate(749.988,255)"
         id="text4">Only</text>
      <text
         font-family="Calibri, Calibri_MSFontService, sans-serif"
         font-weight="400"
         font-size="16px"
         transform="translate(783.488,255)"
         id="text5">Technical System</text>
      <path
         d="m 432.5,279.167 h 35.699 v 0.666 H 432.5 Z m 34.366,-3.667 8,4 -8,4 z"
         id="path5" />
      <path
         d="m 603.5,279.167 h 89.861 v 0.666 H 603.5 Z m 88.528,-3.667 8,4 -8,4 z"
         id="path6" />
      <rect
         x="1007.5"
         y="254.5"
         width="129"
         height="49"
         stroke="#172c51"
         stroke-width="1.33333"
         stroke-miterlimit="8"
         fill="#ffffff"
         id="rect6" />
      <text
         font-family="Calibri, Calibri_MSFontService, sans-serif"
         font-weight="400"
         font-size="16px"
         transform="translate(1042.69,284)"
         id="text6">Afnemer</text>
      <rect
         x="738.5"
         y="99.500099"
         width="129"
         height="49"
         stroke="#172c51"
         stroke-width="1.33333"
         stroke-miterlimit="8"
         fill="#ffffff"
         id="rect7" />
      <text
         font-family="Calibri, Calibri_MSFontService, sans-serif"
         font-weight="400"
         font-size="16px"
         transform="translate(770.621,129)"
         id="text7">Gebruiker</text>
      <path
         d="m 906.5,279.167 h 93.99 v 0.666 H 906.5 Z m 92.653,-3.667 7.997,4 -7.997,4 z"
         id="path7" />
      <path
         d="m 803.833,148.5 v 2.667 h -0.666 V 148.5 Z m 0,4.667 v 2.666 h -0.666 v -2.666 z m 0,4.666 v 2.667 h -0.666 v -2.667 z m 0,4.667 v 2.667 h -0.666 V 162.5 Z m 0,4.667 v 2.666 h -0.666 v -2.666 z m 0,4.666 v 2.667 h -0.666 v -2.667 z m 0,4.667 v 2.667 h -0.666 V 176.5 Z m 0,4.667 v 2.666 h -0.666 v -2.666 z m 0,4.666 v 2.667 h -0.666 v -2.667 z m 0,4.667 v 2.667 h -0.666 V 190.5 Z m 0,4.667 v 2.666 h -0.666 v -2.666 z m 0,4.666 v 2.667 h -0.666 v -2.667 z m 0,4.667 v 2.667 h -0.666 V 204.5 Z m 0,4.667 v 2.666 h -0.666 v -2.666 z m 0,4.666 v 2.667 h -0.666 v -2.667 z m 0,4.667 v 2.667 h -0.666 V 218.5 Z m 0,4.667 v 2.666 h -0.666 v -2.666 z m 0,4.666 v 0.85 h -0.666 v -0.85 z m 3.667,-0.483 -4,8 -4,-8 z"
         id="path8" />
      <text
         font-family="Calibri, Calibri_MSFontService, sans-serif"
         font-weight="400"
         font-size="14px"
         transform="translate(615.494,297)"
         id="text8">verifieerbare</text>
      <text
         font-family="Calibri, Calibri_MSFontService, sans-serif"
         font-weight="400"
         font-size="14px"
         transform="translate(624.074,314)"
         id="text9">verklaring</text>
      <text
         font-family="Calibri, Calibri_MSFontService, sans-serif"
         font-weight="400"
         font-size="14px"
         transform="translate(919.436,299)"
         id="text10">verifieerbare</text>
      <text
         font-family="Calibri, Calibri_MSFontService, sans-serif"
         font-weight="400"
         font-size="14px"
         transform="translate(928.016,316)"
         id="text11">verklaring</text>
      <path
         d="m 803.623,148.19 2.479,0.982 -0.245,0.62 -2.48,-0.982 z m 4.339,1.718 2.479,0.982 -0.245,0.62 -2.48,-0.982 z m 4.339,1.718 2.479,0.982 -0.245,0.62 -2.48,-0.982 z m 4.338,1.718 2.48,0.982 -0.246,0.62 -2.479,-0.982 z m 4.339,1.718 2.48,0.982 -0.246,0.62 -2.479,-0.982 z m 4.339,1.718 2.48,0.982 -0.246,0.62 -2.479,-0.982 z m 4.339,1.718 2.48,0.982 -0.246,0.62 -2.479,-0.982 z m 4.339,1.718 2.479,0.982 -0.245,0.62 -2.479,-0.982 z m 4.339,1.719 2.479,0.981 -0.245,0.62 -2.479,-0.982 z m 4.339,1.718 2.479,0.981 -0.245,0.62 -2.48,-0.982 z m 4.339,1.718 2.479,0.981 -0.245,0.62 -2.48,-0.982 z m 4.339,1.718 2.479,0.981 -0.245,0.62 -2.48,-0.981 z m 4.339,1.718 2.479,0.981 -0.245,0.62 -2.48,-0.981 z m 4.339,1.718 2.479,0.982 -0.246,0.619 -2.479,-0.981 z m 4.338,1.718 2.48,0.982 -0.246,0.619 -2.479,-0.981 z m 4.339,1.718 2.48,0.982 -0.246,0.619 -2.479,-0.981 z m 4.339,1.718 2.48,0.982 -0.246,0.62 -2.479,-0.982 z m 4.339,1.718 2.479,0.982 -0.245,0.62 -2.479,-0.982 z m 4.339,1.718 2.479,0.982 -0.245,0.62 -2.479,-0.982 z m 4.339,1.718 2.479,0.982 -0.245,0.62 -2.48,-0.982 z m 4.339,1.718 2.479,0.982 -0.245,0.62 -2.48,-0.982 z m 4.339,1.718 2.479,0.982 -0.245,0.62 -2.48,-0.982 z m 4.339,1.718 2.479,0.982 -0.246,0.62 -2.479,-0.982 z m 4.338,1.718 2.48,0.982 -0.246,0.62 -2.479,-0.982 z m 4.339,1.718 2.48,0.982 -0.246,0.62 -2.479,-0.982 z m 4.339,1.718 2.48,0.982 -0.246,0.62 -2.479,-0.982 z m 4.339,1.719 2.48,0.981 -0.246,0.62 -2.479,-0.982 z m 4.339,1.718 2.479,0.981 -0.245,0.62 -2.479,-0.982 z m 4.339,1.718 2.479,0.981 -0.245,0.62 -2.479,-0.982 z m 4.339,1.718 2.479,0.981 -0.245,0.62 -2.48,-0.981 z m 4.339,1.718 2.479,0.981 -0.245,0.62 -2.48,-0.981 z m 4.339,1.718 2.479,0.982 -0.245,0.619 -2.48,-0.981 z m 4.339,1.718 2.479,0.982 -0.245,0.619 -2.48,-0.981 z m 4.338,1.718 2.48,0.982 -0.246,0.619 -2.479,-0.981 z m 4.339,1.718 2.48,0.982 -0.246,0.62 -2.479,-0.982 z m 4.339,1.718 2.48,0.982 -0.246,0.62 -2.479,-0.982 z m 4.339,1.718 2.48,0.982 -0.246,0.62 -2.479,-0.982 z m 4.339,1.718 2.479,0.982 -0.245,0.62 -2.479,-0.982 z m 4.339,1.718 2.479,0.982 -0.245,0.62 -2.48,-0.982 z m 4.339,1.718 2.479,0.982 -0.245,0.62 -2.48,-0.982 z m 4.339,1.718 2.479,0.982 -0.245,0.62 -2.48,-0.982 z m 4.339,1.718 2.479,0.982 -0.245,0.62 -2.48,-0.982 z m 4.339,1.718 2.479,0.982 -0.246,0.62 -2.479,-0.982 z m 4.338,1.718 2.48,0.982 -0.246,0.62 -2.479,-0.982 z m 4.339,1.718 2.48,0.982 -0.246,0.62 -2.479,-0.982 z m 4.339,1.719 2.477,0.981 -0.24,0.62 -2.482,-0.982 z m 4.337,1.718 2.48,0.981 -0.24,0.62 -2.48,-0.982 z m 4.34,1.718 2.48,0.981 -0.24,0.62 -2.48,-0.982 z m 4.34,1.718 2.48,0.981 -0.25,0.62 -2.48,-0.982 z m 4.34,1.718 2.48,0.981 -0.25,0.62 -2.48,-0.981 z m 4.34,1.718 2.48,0.982 -0.25,0.619 -2.48,-0.981 z m 4.34,1.718 2.48,0.982 -0.25,0.619 -2.48,-0.981 z m 4.34,1.718 2.47,0.982 -0.24,0.619 -2.48,-0.981 z m 4.33,1.718 2.48,0.982 -0.24,0.62 -2.48,-0.982 z m 4.34,1.718 2.48,0.982 -0.24,0.62 -2.48,-0.982 z m 4.34,1.718 2.48,0.982 -0.24,0.62 -2.48,-0.982 z m 4.34,1.718 2.48,0.982 -0.24,0.62 -2.48,-0.982 z m 4.34,1.718 2.48,0.982 -0.25,0.62 -2.48,-0.982 z m 4.34,1.718 2.48,0.982 -0.25,0.62 -2.48,-0.982 z m 4.34,1.718 2.48,0.982 -0.25,0.62 -2.48,-0.982 z m 4.34,1.718 1.79,0.709 -0.25,0.62 -1.79,-0.709 z m 1.9,-3.191 5.96,6.665 -8.91,0.773 z"
         id="path11" />
      <path
         d="M 0.124369,-0.309263 2.59847,0.685691 2.34973,1.30422 -0.124369,0.309263 Z M 4.45405,1.43191 6.92815,2.42686 6.67941,3.04538 4.20531,2.05043 Z M 8.78372,3.17307 11.2578,4.16803 11.0091,4.78655 8.53499,3.7916 Z M 13.1134,4.91424 15.5875,5.9092 15.3388,6.52772 12.8647,5.53277 Z m 4.3297,1.74117 2.4741,0.99495 -0.2488,0.61853 -2.4741,-0.99495 z m 4.3297,1.74117 2.4741,0.99495 -0.2488,0.61857 -2.4741,-0.995 z m 4.3296,1.74112 2.4741,0.995 -0.2487,0.6185 -2.4741,-0.9949 z m 4.3297,1.7412 2.4741,0.995 -0.2487,0.6185 -2.4741,-0.995 z m 4.3297,1.7412 2.4741,0.9949 -0.2487,0.6186 -2.4741,-0.995 z m 4.3297,1.7412 2.4741,0.9949 -0.2488,0.6185 -2.4741,-0.9949 z m 4.3296,1.7411 2.4741,0.995 -0.2487,0.6185 -2.4741,-0.995 z m 4.3297,1.7412 2.4741,0.9949 -0.2487,0.6186 -2.4741,-0.995 z m 4.3297,1.7412 2.4741,0.9949 -0.2487,0.6185 -2.4741,-0.9949 z m 4.3297,1.7411 2.4741,0.995 -0.2488,0.6185 -2.4741,-0.9949 z m 4.3297,1.7412 2.4741,0.995 -0.2488,0.6185 -2.4741,-0.995 z m 4.3296,1.7412 2.4741,0.9949 -0.2487,0.6186 -2.4741,-0.995 z m 4.3297,1.7411 2.4741,0.995 -0.2487,0.6185 -2.4741,-0.9949 z m 4.3297,1.7412 2.4741,0.995 -0.2487,0.6185 -2.4741,-0.995 z m 4.3297,1.7412 2.4741,0.9949 -0.2488,0.6186 -2.4741,-0.995 z m 4.3297,1.7411 2.4741,0.995 -0.2488,0.6185 -2.4741,-0.9949 z m 4.3296,1.7412 2.4741,0.995 -0.2487,0.6185 -2.4741,-0.995 z m 4.3297,1.7412 2.4741,0.9949 -0.2487,0.6186 -2.4741,-0.995 z m 4.3297,1.7411 2.4741,0.995 -0.2488,0.6185 -2.4741,-0.9949 z m 4.3297,1.7412 2.474,0.995 -0.249,0.6185 -2.4738,-0.995 z m 4.33,1.7412 2.474,0.9949 -0.249,0.6186 -2.474,-0.995 z m 4.329,1.7412 2.474,0.9949 -0.248,0.6185 -2.474,-0.9949 z m 4.33,1.7411 2.474,0.995 -0.249,0.6185 -2.474,-0.995 z m 4.33,1.7412 2.474,0.9949 -0.249,0.6186 -2.474,-0.995 z m 4.329,1.7412 2.474,0.9949 -0.248,0.6185 -2.474,-0.9949 z m 4.33,1.7411 2.474,0.995 -0.249,0.6185 -2.474,-0.995 z m 4.33,1.7412 2.474,0.9949 -0.249,0.6186 -2.474,-0.995 z m 4.329,1.7412 2.475,0.9949 -0.249,0.6185 -2.474,-0.9949 z m 4.33,1.7411 2.474,0.995 -0.249,0.6185 -2.474,-0.9949 z m 4.33,1.7412 2.474,0.9949 -0.249,0.6186 -2.474,-0.995 z m 4.329,1.7412 2.475,0.9949 -0.249,0.6185 -2.474,-0.9949 z m 4.33,1.7411 2.474,0.995 -0.249,0.6185 -2.474,-0.9949 z m 4.33,1.7412 2.474,0.995 -0.249,0.6185 -2.474,-0.995 z m 4.329,1.7412 2.475,0.9949 -0.249,0.6186 -2.474,-0.995 z m 4.33,1.7411 2.474,0.995 -0.248,0.6185 -2.475,-0.9949 z m 4.33,1.7412 2.474,0.995 -0.249,0.6185 -2.474,-0.995 z m 4.329,1.7412 2.475,0.9949 -0.249,0.6186 -2.474,-0.995 z m 4.33,1.7411 2.474,0.995 -0.248,0.6185 -2.475,-0.9949 z m 4.33,1.7412 2.474,0.995 -0.249,0.6185 -2.474,-0.995 z m 4.33,1.7412 2.474,0.9949 -0.249,0.6186 -2.474,-0.995 z m 4.329,1.7411 2.474,0.995 -0.248,0.6185 -2.475,-0.9949 z m 4.33,1.7412 2.474,0.995 -0.249,0.6185 -2.474,-0.995 z m 4.33,1.7412 2.474,0.9949 -0.249,0.6186 -2.474,-0.995 z m 4.329,1.7412 2.474,0.9949 -0.248,0.6185 -2.475,-0.9949 z m 4.33,1.7411 2.474,0.995 -0.249,0.6185 -2.474,-0.995 z m 4.33,1.7412 2.474,0.9949 -0.249,0.6186 -2.474,-0.995 z m 4.329,1.7412 2.474,0.9949 -0.248,0.6185 -2.474,-0.9949 z m 4.33,1.7411 2.474,0.995 -0.249,0.6185 -2.474,-0.995 z m 4.33,1.7412 2.474,0.9949 -0.249,0.6186 -2.474,-0.995 z m 4.329,1.7412 2.474,0.9949 -0.248,0.6185 -2.474,-0.9949 z m 4.33,1.7411 2.474,0.995 -0.249,0.6185 -2.474,-0.9949 z m 4.33,1.7412 2.474,0.9949 -0.249,0.6186 -2.474,-0.995 z m 4.329,1.7412 2.474,0.9949 -0.248,0.6185 -2.474,-0.9949 z m 4.33,1.7411 2.474,0.995 -0.249,0.6187 -2.474,-0.9951 z m 4.33,1.7407 2.474,0.995 -0.249,0.619 -2.474,-0.995 z m 4.329,1.742 2.474,0.995 -0.248,0.618 -2.474,-0.995 z m 2.693,-2.8694 5.93,6.6964 -8.915,0.726 z"
         transform="matrix(-1,0,0,1,803.698,148.5)"
         id="path12" />
      <rect
         x="707.5"
         y="269.5"
         width="81"
         height="49"
         stroke="#172c51"
         stroke-width="1.33333"
         stroke-miterlimit="8"
         fill="#ffffff"
         id="rect12" />
      <text
         font-family="Calibri, Calibri_MSFontService, sans-serif"
         font-weight="400"
         font-size="16px"
         transform="translate(722.6,299)"
         id="text12">OOTS</text>
      <text
         font-family="Calibri, Calibri_MSFontService, sans-serif"
         font-weight="400"
         font-size="16px"
         transform="translate(758.594,299)"
         id="text13">-</text>
      <text
         font-family="Calibri, Calibri_MSFontService, sans-serif"
         font-weight="400"
         font-size="16px"
         transform="translate(763.427,299)"
         id="text14">V</text>
      <rect
         x="812.5"
         y="269.5"
         width="82"
         height="49"
         stroke="#172c51"
         stroke-width="1.33333"
         stroke-miterlimit="8"
         fill="#ffffff"
         id="rect14" />
      <text
         font-family="Calibri, Calibri_MSFontService, sans-serif"
         font-weight="400"
         font-size="16px"
         transform="translate(828.06,299)"
         id="text15">OOTS</text>
      <text
         font-family="Calibri, Calibri_MSFontService, sans-serif"
         font-weight="400"
         font-size="16px"
         transform="translate(864.053,299)"
         id="text16">-</text>
      <text
         font-family="Calibri, Calibri_MSFontService, sans-serif"
         font-weight="400"
         font-size="16px"
         transform="translate(868.887,299)"
         id="text17">A</text>
    </g>
  </g>
</svg>
